<svg xmlns="http://www.w3.org/2000/svg" viewBox="0 0 1250.359 122.046">
<desc>Created with https://vsm.github.io/demo</desc>
<style>path{stroke:none}</style>
<path d="M267.446 88v1.2h96.199V88z"/>
<path d="M267.446 88v14.2h1.199V88z"/>
<path d="M320.446 88v7.81h1.199V88z"/>
<path d="M321.046 94.61l4.29 7.59h-8.58z"/>
<path d="M362.446 88v13h1.199V88z"/>
<path d="M359.678 95.453l-.965.715 4.332 5.84 4.332-5.84-.962-.715-3.37 4.54z"/>
<path d="M267.446 66v1.2h179.199V66z"/>
<path d="M267.446 66v14.2h1.199V66z"/>
<path d="M405.446 66v29.81h1.199V66z"/>
<path d="M406.046 94.61l4.29 7.59h-8.58z"/>
<path d="M445.446 66v35h1.199V66z"/>
<path d="M442.678 95.453l-.965.715 4.332 5.84 4.332-5.84-.962-.715-3.37 4.54z"/>
<path d="M226.446 44v1.2h42.199V44z"/>
<path d="M226.446 44v58.2h1.199V44z"/>
<path d="M267.446 44v13h1.199V44z"/>
<path d="M264.678 51.453l-.965.715 4.332 5.84 4.332-5.84-.962-.715-3.37 4.54z"/>
<path fill="#f2f2f2" d="M244.747 49.1v1.2h5.6v-1.2z"/>
<path fill="#eee" d="M246.946 45.2v3.9h1.199v-3.9z"/>
<path fill="#eee" d="M247.546 46.15l1.7 2.95h-3.4z"/>
<path d="M484.446 88v1.2h84.199V88z"/>
<path d="M484.446 90.33v1.2h84.199v-1.2z"/>
<path d="M484.446 88v7.82h1.199V88z"/>
<path d="M481.526 95.82h7.04v6.38h-7.04z"/>
<path d="M521.446 88v14.2h1.199V88z"/>
<path d="M544.446 88v14.2h1.199V88z"/>
<path d="M567.446 88v14.2h1.199V88z"/>
<path d="M640.446 88v1.2h101.199V88z"/>
<path d="M640.446 88v14.2h1.199V88z"/>
<path d="M685.446 88v7.81h1.199V88z"/>
<path d="M686.046 94.61l4.29 7.59h-8.58z"/>
<path d="M740.446 88v13h1.199V88z"/>
<path d="M737.678 95.453l-.965.715 4.332 5.84 4.332-5.84-.962-.715-3.37 4.54z"/>
<path d="M815.446 88v1.2h96.199V88z"/>
<path d="M815.446 88v14.2h1.199V88z"/>
<path d="M870.446 88v7.81h1.199V88z"/>
<path d="M871.046 94.61l4.29 7.59h-8.58z"/>
<path d="M910.446 88v13h1.199V88z"/>
<path d="M907.678 95.453l-.965.715 4.332 5.84 4.332-5.84-.962-.715-3.37 4.54z"/>
<path d="M773.446 66v1.2h43.199V66z"/>
<path d="M773.446 66v36.2h1.199V66z"/>
<path d="M815.446 66v13h1.199V66z"/>
<path d="M812.678 73.453l-.965.715 4.332 5.84 4.332-5.84-.962-.715-3.37 4.54z"/>
<path fill="#f2f2f2" d="M792.247 71.1v1.2h5.6v-1.2z"/>
<path fill="#eee" d="M794.446 67.2v3.9h1.199v-3.9z"/>
<path fill="#eee" d="M795.046 68.15l1.7 2.95h-3.4z"/>
<path d="M773.446 44v1.2h273.199V44z"/>
<path d="M773.446 44v14.2h1.199V44z"/>
<path d="M971.446 44v51.81h1.199V44z"/>
<path d="M972.046 94.61l4.29 7.59h-8.58z"/>
<path d="M1045.446 44v57h1.199V44z"/>
<path d="M1042.678 95.453l-.965.715 4.332 5.84 4.332-5.84-.962-.715-3.37 4.54z"/>
<path d="M603.446 22v1.2h171.199V22z"/>
<path d="M603.446 24.33v1.2h171.199v-1.2z"/>
<path d="M603.446 22v73.82h1.199V22z"/>
<path d="M600.526 95.82h7.04v6.38h-7.04z"/>
<path d="M640.446 22v58.2h1.199V22z"/>
<path d="M773.446 22v14.2h1.199V22z"/>
<path d="M1164.446 88v1.2h84.199V88z"/>
<path d="M1164.446 90.33v1.2h84.199v-1.2z"/>
<path d="M1164.446 88v7.82h1.199V88z"/>
<path d="M1161.526 95.82h7.04v6.38h-7.04z"/>
<path d="M1201.446 88v14.2h1.199V88z"/>
<path d="M1224.446 88v14.2h1.199V88z"/>
<path d="M1247.446 88v14.2h1.199V88z"/>
<path d="M1106.446 66v1.2h59.199V66z"/>
<path d="M1164.446 66v14.2h1.199V66z"/>
<path d="M1106.446 66v35h1.199V66z"/>
<path d="M1103.678 95.453l-.965.715 4.332 5.84 4.332-5.84-.962-.715-3.37 4.54z"/>
<path fill="#f2f2f2" d="M1133.247 71.1v1.2h5.6v-1.2z"/>
<path fill="#eee" d="M1135.446 67.2v3.9h1.199v-3.9z"/>
<path fill="#eee" d="M1136.046 68.15l1.7 2.95h-3.4z"/>
<path d="M91.446.6h1074.2"/>
<path d="M91.446 0v1.2h1074.199V0z"/>
<path d="M91.446 2.33v1.2h1074.199v-1.2z"/>
<path d="M91.446 0v95.82h1.199V0z"/>
<path d="M88.526 95.82h7.04v6.38h-7.04z"/>
<path d="M203.446 0v102.2h1.199V0z"/>
<path d="M226.446 0v36.2h1.199V0z"/>
<path d="M484.446 0v80.2h1.199V0z"/>
<path d="M603.446 0v14.2h1.199V0z"/>
<path d="M1164.446 0v58.2h1.199V0z"/>
<path d="M0 121.882V111.84h1.121v.944q.397-.554.896-.828.499-.28 1.21-.28.93 0 1.64.479.711.478 1.073 1.353.363.868.363 1.907 0 1.115-.404 2.01-.396.889-1.162 1.367-.758.472-1.6.472-.615 0-1.107-.26-.485-.26-.8-.656v3.534zm1.114-6.37q0 1.4.568 2.07.567.67 1.374.67.82 0 1.401-.69.588-.697.588-2.153 0-1.388-.574-2.079-.568-.69-1.36-.69-.787 0-1.395.738-.602.732-.602 2.133z"/>
<path d="M7.772 119.1v-7.26H8.88v1.1q.424-.772.78-1.018.361-.246.792-.246.622 0 1.265.397l-.424 1.141q-.451-.266-.902-.266-.404 0-.725.246-.321.239-.458.67-.205.656-.205 1.435v3.801z"/>
<path d="M11.99 115.47q0-2.016 1.121-2.987.937-.807 2.284-.807 1.497 0 2.447.985.95.977.95 2.707 0 1.4-.424 2.208-.417.8-1.223 1.244-.8.444-1.75.444-1.525 0-2.468-.977-.937-.978-.937-2.817zm1.265 0q0 1.395.608 2.092.609.69 1.532.69.916 0 1.524-.697t.608-2.126q0-1.347-.615-2.037-.608-.697-1.517-.697-.923 0-1.532.69-.608.69-.608 2.085z"/>
<path d="M22.92 118l.179 1.086q-.52.11-.93.11-.67 0-1.04-.212-.368-.212-.519-.554-.15-.349-.15-1.456v-4.177h-.902v-.957h.902v-1.798l1.224-.738v2.536h1.237v.957h-1.237v4.245q0 .527.061.677.068.15.212.24.15.088.424.088.205 0 .54-.047z"/>
<path d="M29.094 116.762l1.271.157q-.3 1.115-1.114 1.73-.814.615-2.078.615-1.593 0-2.53-.977-.93-.985-.93-2.755 0-1.832.944-2.844.944-1.012 2.447-1.012 1.457 0 2.38.991.922.992.922 2.79 0 .109-.007.328h-5.414q.069 1.196.677 1.832.609.635 1.518.635.676 0 1.155-.355.479-.356.759-1.135zm-4.04-1.99h4.053q-.082-.915-.464-1.373-.588-.711-1.525-.711-.847 0-1.429.567-.574.568-.635 1.518z"/>
<path d="M31.917 110.494v-1.415h1.23v1.415zm0 8.606v-7.26h1.23v7.26z"/>
<path d="M35.02 119.1v-7.26h1.108v1.032q.8-1.196 2.31-1.196.657 0 1.204.24.553.232.827.615.273.382.383.909.068.342.068 1.196v4.464h-1.23v-4.416q0-.752-.144-1.121-.144-.376-.513-.595-.362-.225-.854-.225-.786 0-1.36.499-.568.499-.568 1.893v3.965z"/>
<path d="M51.434 118.204q-.684.582-1.32.82-.629.24-1.353.24-1.197 0-1.84-.581-.642-.588-.642-1.497 0-.533.24-.97.246-.445.635-.712.397-.266.889-.403.362-.096 1.094-.185 1.49-.177 2.194-.423.007-.253.007-.322 0-.752-.349-1.06-.471-.416-1.401-.416-.868 0-1.285.307-.41.301-.609 1.074l-1.203-.164q.164-.773.54-1.245.376-.478 1.087-.731.711-.26 1.648-.26.93 0 1.51.219.581.219.855.554.273.328.383.834.061.314.061 1.134v1.641q0 1.716.075 2.174.082.451.315.868H51.68q-.192-.383-.246-.896zm-.103-2.748q-.67.274-2.01.465-.758.11-1.073.246-.314.137-.485.404-.171.26-.171.58 0 .493.369.821.376.328 1.094.328.71 0 1.264-.307.554-.315.814-.855.198-.417.198-1.23z"/>
<path d="M53.99 116.933l1.217-.191q.103.731.567 1.12.472.39 1.313.39.848 0 1.258-.341.41-.35.41-.814 0-.417-.362-.656-.253-.164-1.258-.417-1.354-.342-1.88-.588-.52-.253-.793-.69-.267-.445-.267-.978 0-.485.22-.896.225-.417.607-.69.288-.212.78-.355.499-.15 1.066-.15.855 0 1.497.245.65.246.957.67.308.417.424 1.121l-1.203.164q-.082-.56-.479-.875-.39-.314-1.107-.314-.848 0-1.21.28t-.362.656q0 .24.15.431.15.198.472.328.184.069 1.087.315 1.305.348 1.818.574.52.219.814.642.294.424.294 1.053 0 .615-.363 1.162-.355.54-1.032.841-.677.294-1.531.294-1.415 0-2.16-.588-.739-.588-.944-1.743z"/>
<path d="M60.99 116.933l1.217-.191q.103.731.567 1.12.472.39 1.313.39.848 0 1.258-.341.41-.35.41-.814 0-.417-.362-.656-.253-.164-1.258-.417-1.354-.342-1.88-.588-.52-.253-.793-.69-.267-.445-.267-.978 0-.485.22-.896.225-.417.607-.69.288-.212.78-.355.499-.15 1.066-.15.855 0 1.497.245.65.246.957.67.308.417.424 1.121l-1.203.164q-.082-.56-.479-.875-.39-.314-1.107-.314-.848 0-1.21.28t-.362.656q0 .24.15.431.15.198.472.328.184.069 1.087.315 1.305.348 1.818.574.52.219.814.642.294.424.294 1.053 0 .615-.363 1.162-.355.54-1.032.841-.677.294-1.531.294-1.415 0-2.16-.588-.739-.588-.944-1.743z"/>
<path d="M73.452 116.762l1.272.157q-.301 1.115-1.115 1.73-.813.615-2.078.615-1.593 0-2.529-.977-.93-.985-.93-2.755 0-1.832.944-2.844.943-1.012 2.447-1.012 1.456 0 2.379.991.923.992.923 2.79 0 .109-.007.328h-5.414q.068 1.196.677 1.832.608.635 1.517.635.677 0 1.155-.355.479-.356.76-1.135zm-4.04-1.99h4.054q-.082-.915-.465-1.373-.588-.711-1.524-.711-.848 0-1.43.567-.573.568-.635 1.518z"/>
<path d="M76.269 119.1v-7.26h1.1v1.019q.342-.533.91-.855.567-.328 1.291-.328.807 0 1.32.335.52.335.731.937.861-1.272 2.242-1.272 1.08 0 1.661.602.581.594.581 1.839v4.983h-1.223v-4.573q0-.739-.123-1.06-.116-.328-.43-.526-.315-.198-.74-.198-.765 0-1.27.512-.506.506-.506 1.627v4.218h-1.231v-4.717q0-.82-.3-1.23-.302-.41-.985-.41-.52 0-.964.273-.437.273-.636.8-.198.526-.198 1.517v3.767z"/>
<path d="M89.065 119.1h-1.141v-10.021h1.23v3.575q.78-.978 1.99-.978.67 0 1.264.274.602.266.985.758.39.486.608 1.176.219.69.219 1.477 0 1.866-.923 2.885-.923 1.018-2.215 1.018-1.285 0-2.017-1.073zm-.013-3.685q0 1.306.355 1.887.581.95 1.572.95.807 0 1.395-.697.588-.704.588-2.092 0-1.422-.567-2.098-.561-.677-1.36-.677-.807 0-1.395.704-.588.697-.588 2.023z"/>
<path d="M95.69 119.1v-10.021h1.23V119.1z"/>
<path d="M98.772 121.896l-.136-1.155q.403.109.704.109.41 0 .656-.137.246-.136.403-.383.117-.184.376-.916.035-.102.11-.3l-2.755-7.274h1.326l1.51 4.204q.295.8.527 1.682.212-.848.506-1.654l1.552-4.232h1.23l-2.761 7.383q-.445 1.196-.69 1.648-.329.608-.753.888-.424.287-1.012.287-.355 0-.793-.15z"/>
<path d="M111.05 122.046q-1.073-2.351-1.073-4.833 0-1.654.43-3.076.438-1.429 1.326-2.823.588-.93 1.88-2.406h.964q-.8.854-1.695 2.406-.889 1.552-1.292 3.049-.403 1.497-.403 3.008 0 2.255.786 4.675z"/>
<path d="M118.932 116.454l1.237.13q-.465 1.36-1.326 2.024-.855.656-1.948.656-1.183 0-1.921-.766-.732-.765-.732-2.14 0-1.189.472-2.337.472-1.149 1.347-1.743.881-.602 2.01-.602 1.168 0 1.852.663.683.657.683 1.743l-1.216.082q-.007-.69-.404-1.08-.39-.39-1.032-.39-.745 0-1.292.472t-.861 1.436q-.308.957-.308 1.846 0 .93.41 1.394.41.465 1.012.465.602 0 1.148-.458.554-.458.869-1.395z"/>
<path d="M121.14 116.345q0-2.126 1.25-3.52 1.033-1.149 2.708-1.149 1.312 0 2.112.82.807.82.807 2.215 0 1.251-.506 2.331-.506 1.074-1.443 1.648-.93.574-1.962.574-.847 0-1.544-.362-.69-.363-1.06-1.026-.362-.663-.362-1.53zm1.237-.123q0 1.025.492 1.559.492.526 1.251.526.397 0 .786-.157.39-.164.725-.492.335-.329.567-.746.24-.423.383-.909.212-.676.212-1.299 0-.984-.5-1.524-.491-.547-1.243-.547-.581 0-1.06.28-.478.274-.868.807-.383.533-.567 1.244-.178.704-.178 1.258z"/>
<path d="M128.7 119.1l1.518-7.26h1.237l-.253 1.197q.69-.773 1.23-1.067.547-.294 1.183-.294.677 0 1.128.362.458.356.602.999.553-.684 1.162-1.019.615-.342 1.292-.342.909 0 1.36.43.458.431.458 1.21 0 .336-.157 1.108l-.978 4.676h-1.237l.998-4.799q.13-.588.13-.84 0-.356-.226-.561-.225-.205-.635-.205-.554 0-1.128.335-.574.335-.896.882-.314.54-.553 1.667l-.739 3.521h-1.237l1.025-4.901q.11-.5.11-.711 0-.356-.226-.575-.219-.218-.574-.218-.526 0-1.107.335-.575.335-.937.936-.362.595-.595 1.702l-.718 3.432z"/>
<path d="M139.76 121.882l2.1-10.042H143l-.212 1.012q.636-.663 1.135-.916.506-.26 1.066-.26 1.04 0 1.723.759.683.752.683 2.16 0 1.135-.375 2.071-.376.93-.923 1.497-.547.568-1.108.834-.56.267-1.148.267-1.306 0-2.024-1.326l-.82 3.944zm2.448-5.749q0 .814.116 1.128.171.444.56.718.39.273.903.273 1.067 0 1.723-1.196.656-1.203.656-2.454 0-.923-.444-1.422-.438-.506-1.094-.506-.472 0-.875.253-.403.246-.752.745-.342.492-.567 1.21-.226.718-.226 1.251z"/>
<path d="M148.06 119.1l2.091-10.021h1.238l-2.092 10.021z"/>
<path d="M156.598 116.632l1.203.123q-.26.896-1.197 1.702-.93.807-2.221.807-.807 0-1.484-.37-.67-.375-1.025-1.086-.349-.71-.349-1.62 0-1.19.547-2.304.554-1.12 1.429-1.66.875-.548 1.894-.548 1.298 0 2.07.807.78.806.78 2.201 0 .533-.096 1.094h-5.345q-.028.212-.028.383 0 1.018.465 1.558.472.533 1.149.533.635 0 1.25-.417.616-.417.958-1.203zm-3.596-1.798h4.074q.007-.191.007-.273 0-.93-.465-1.422-.465-.499-1.196-.499-.793 0-1.45.547-.649.547-.97 1.647z"/>
<path d="M158.566 119.1l3.159-3.685-1.812-3.575h1.367l.616 1.292q.341.725.615 1.388l2.092-2.68h1.51l-3.049 3.671 1.832 3.589h-1.367l-.724-1.477q-.233-.471-.527-1.169l-2.16 2.646z"/>
<path d="M170.16 116.345q0-2.126 1.251-3.52 1.032-1.149 2.707-1.149 1.313 0 2.112.82.807.82.807 2.215 0 1.251-.506 2.331-.506 1.074-1.442 1.648-.93.574-1.962.574-.848 0-1.545-.362-.69-.363-1.06-1.026-.362-.663-.362-1.53zm1.237-.123q0 1.025.493 1.559.492.526 1.25.526.397 0 .787-.157.39-.164.724-.492.335-.329.568-.746.239-.423.383-.909.211-.676.211-1.299 0-.984-.499-1.524-.492-.547-1.244-.547-.58 0-1.06.28-.478.274-.867.807-.383.533-.568 1.244-.178.704-.178 1.258z"/>
<path d="M177.898 119.1l1.32-6.303h-1.108l.199-.957h1.107l.212-1.032q.164-.772.335-1.114.178-.342.567-.56.397-.226 1.074-.226.471 0 1.367.198l-.226 1.08q-.629-.164-1.053-.164-.362 0-.553.184-.185.178-.322.855l-.164.78h1.381l-.198.956h-1.38l-1.32 6.303z"/>
<path d="M183.928 108.908q1.08 2.351 1.08 4.826 0 1.66-.438 3.083-.43 1.422-1.319 2.823-.595.93-1.88 2.406h-.964q.793-.861 1.689-2.413.895-1.552 1.292-3.042.403-1.497.403-3.014 0-2.256-.786-4.67z"/>
<path d="M199.256 119.1l3.849-10.021h1.429l4.101 10.021h-1.51l-1.17-3.035h-4.19l-1.1 3.035zm2.892-4.115h3.397l-1.045-2.776q-.479-1.264-.711-2.078-.192.964-.54 1.914z"/>
<path d="M223.302 119.1v-10.021h3.76q1.148 0 1.839.307.697.3 1.087.937.396.629.396 1.319 0 .643-.348 1.21-.349.567-1.053.916.91.267 1.394.91.493.642.493 1.517 0 .704-.301 1.312-.294.602-.732.93-.437.328-1.1.499-.656.164-1.613.164zm1.326-5.81h2.167q.882 0 1.265-.117.506-.15.759-.499.26-.348.26-.875 0-.499-.24-.875-.239-.383-.683-.52-.445-.143-1.525-.143h-2.003zm0 4.627h2.496q.642 0 .902-.047.458-.082.765-.274.308-.191.506-.554.199-.369.199-.847 0-.56-.287-.97-.288-.418-.8-.582-.506-.17-1.463-.17h-2.318z"/>
<path d="M245.903 121.882V111.84h1.121v.944q.397-.554.896-.828.499-.28 1.21-.28.93 0 1.64.479.711.478 1.074 1.353.362.868.362 1.907 0 1.115-.403 2.01-.397.889-1.162 1.367-.76.472-1.6.472-.615 0-1.107-.26-.486-.26-.8-.656v3.534zm1.115-6.37q0 1.4.567 2.07.567.67 1.374.67.82 0 1.401-.69.588-.697.588-2.153 0-1.388-.574-2.079-.567-.69-1.36-.69-.786 0-1.395.738-.601.732-.601 2.133z"/>
<path d="M253.69 119.1v-10.021h1.23v3.595q.861-.998 2.174-.998.806 0 1.401.321.595.315.848.875.26.561.26 1.627v4.601h-1.23v-4.6q0-.923-.404-1.34-.397-.424-1.128-.424-.547 0-1.032.287-.479.28-.684.765-.205.486-.205 1.34v3.972z"/>
<path d="M261.018 115.47q0-2.016 1.12-2.987.937-.807 2.284-.807 1.497 0 2.447.985.95.977.95 2.707 0 1.4-.423 2.208-.417.8-1.224 1.244-.8.444-1.75.444-1.525 0-2.468-.977-.936-.978-.936-2.817zm1.264 0q0 1.395.609 2.092.608.69 1.53.69.917 0 1.525-.697.609-.697.609-2.126 0-1.347-.616-2.037-.608-.697-1.517-.697-.923 0-1.531.69-.609.69-.609 2.085z"/>
<path d="M268.77 116.933l1.216-.191q.103.731.568 1.12.471.39 1.312.39.848 0 1.258-.341.41-.35.41-.814 0-.417-.362-.656-.253-.164-1.258-.417-1.353-.342-1.88-.588-.52-.253-.793-.69-.266-.445-.266-.978 0-.485.218-.896.226-.417.609-.69.287-.212.779-.355.5-.15 1.066-.15.855 0 1.498.245.649.246.957.67.307.417.423 1.121l-1.203.164q-.082-.56-.478-.875-.39-.314-1.108-.314-.847 0-1.21.28-.362.28-.362.656 0 .24.15.431.15.198.472.328.185.069 1.087.315 1.306.348 1.818.574.52.219.814.642.294.424.294 1.053 0 .615-.362 1.162-.356.54-1.033.841-.676.294-1.53.294-1.416 0-2.161-.588-.738-.588-.943-1.743z"/>
<path d="M276.262 121.882V111.84h1.12v.944q.397-.554.896-.828.5-.28 1.21-.28.93 0 1.64.479.712.478 1.074 1.353.362.868.362 1.907 0 1.115-.403 2.01-.396.889-1.162 1.367-.759.472-1.6.472-.615 0-1.107-.26-.485-.26-.8-.656v3.534zm1.114-6.37q0 1.4.567 2.07.568.67 1.374.67.82 0 1.402-.69.588-.697.588-2.153 0-1.388-.575-2.079-.567-.69-1.36-.69-.786 0-1.394.738-.602.732-.602 2.133z"/>
<path d="M284.048 119.1v-10.021h1.23v3.595q.862-.998 2.174-.998.807 0 1.402.321.594.315.847.875.26.561.26 1.627v4.601h-1.23v-4.6q0-.923-.404-1.34-.396-.424-1.128-.424-.547 0-1.032.287-.479.28-.684.765-.205.486-.205 1.34v3.972z"/>
<path d="M309.6 118.204q-.684.582-1.32.82-.63.24-1.354.24-1.196 0-1.839-.581-.642-.588-.642-1.497 0-.533.24-.97.245-.445.635-.712.396-.266.889-.403.362-.096 1.093-.185 1.49-.177 2.195-.423.007-.253.007-.322 0-.752-.35-1.06-.47-.416-1.4-.416-.869 0-1.286.307-.41.301-.608 1.074l-1.203-.164q.164-.773.54-1.245.376-.478 1.087-.731.71-.26 1.647-.26.93 0 1.511.219.581.219.855.554.273.328.382.834.062.314.062 1.134v1.641q0 1.716.075 2.174.082.451.315.868h-1.286q-.191-.383-.246-.896zm-.103-2.748q-.67.274-2.01.465-.759.11-1.073.246-.315.137-.486.404-.17.26-.17.58 0 .493.368.821.376.328 1.094.328.711 0 1.265-.307.554-.315.813-.855.199-.417.199-1.23z"/>
<path d="M315.334 118l.178 1.086q-.52.11-.93.11-.67 0-1.039-.212-.369-.212-.52-.554-.15-.349-.15-1.456v-4.177h-.902v-.957h.903v-1.798l1.223-.738v2.536h1.237v.957h-1.237v4.245q0 .527.062.677.068.15.212.24.15.088.423.088.205 0 .54-.047z"/>
<path d="M320.414 119.1v-7.26h1.107v1.1q.424-.772.78-1.018.362-.246.792-.246.622 0 1.265.397l-.424 1.141q-.451-.266-.902-.266-.404 0-.725.246-.321.239-.458.67-.205.656-.205 1.435v3.801z"/>
<path d="M330.06 116.762l1.27.157q-.3 1.115-1.114 1.73-.813.615-2.078.615-1.593 0-2.53-.977-.929-.985-.929-2.755 0-1.832.944-2.844.943-1.012 2.447-1.012 1.456 0 2.379.991.923.992.923 2.79 0 .109-.007.328h-5.414q.068 1.196.676 1.832.609.635 1.518.635.677 0 1.155-.355.479-.356.759-1.135zm-4.041-1.99h4.054q-.082-.915-.465-1.373-.588-.711-1.524-.711-.848 0-1.43.567-.573.568-.635 1.518z"/>
<path d="M332.383 116.933l1.217-.191q.103.731.567 1.12.472.39 1.313.39.848 0 1.258-.341.41-.35.41-.814 0-.417-.362-.656-.253-.164-1.258-.417-1.354-.342-1.88-.588-.52-.253-.793-.69-.267-.445-.267-.978 0-.485.22-.896.225-.417.608-.69.287-.212.779-.355.499-.15 1.066-.15.855 0 1.497.245.65.246.957.67.308.417.424 1.121l-1.203.164q-.082-.56-.478-.875-.39-.314-1.108-.314-.848 0-1.21.28t-.362.656q0 .24.15.431.15.198.472.328.184.069 1.087.315 1.305.348 1.818.574.52.219.814.642.294.424.294 1.053 0 .615-.363 1.162-.355.54-1.032.841-.677.294-1.531.294-1.415 0-2.16-.588-.739-.588-.944-1.743z"/>
<path d="M352.682 115.88l1.25-.11q.09.753.41 1.238.329.479 1.012.78.684.293 1.539.293.758 0 1.34-.225.58-.226.86-.615.288-.397.288-.862 0-.471-.274-.82-.273-.355-.902-.595-.403-.157-1.784-.485-1.381-.335-1.935-.629-.717-.376-1.073-.93-.349-.56-.349-1.25 0-.76.431-1.416.43-.663 1.258-1.005.827-.341 1.839-.341 1.114 0 1.962.362.854.355 1.312 1.053.458.697.492 1.579l-1.271.095q-.103-.95-.697-1.435-.588-.485-1.744-.485-1.203 0-1.756.444-.547.437-.547 1.06 0 .54.39.888.382.349 1.996.718 1.62.362 2.221.636.875.403 1.292 1.025.417.615.417 1.422 0 .8-.458 1.51-.458.705-1.32 1.101-.854.39-1.927.39-1.36 0-2.283-.397-.916-.396-1.442-1.189-.52-.8-.547-1.805z"/>
<path d="M367.283 116.762l1.272.157q-.301 1.115-1.115 1.73-.813.615-2.078.615-1.592 0-2.529-.977-.93-.985-.93-2.755 0-1.832.944-2.844.943-1.012 2.447-1.012 1.456 0 2.379.991.923.992.923 2.79 0 .109-.007.328h-5.414q.068 1.196.677 1.832.608.635 1.517.635.677 0 1.155-.355.479-.356.76-1.135zm-4.04-1.99h4.054q-.082-.915-.465-1.373-.588-.711-1.524-.711-.848 0-1.43.567-.573.568-.635 1.518z"/>
<path d="M370.086 119.1v-7.26h1.107v1.1q.424-.772.78-1.018.362-.246.793-.246.622 0 1.264.397l-.424 1.141q-.45-.266-.902-.266-.403 0-.725.246-.32.239-.458.67-.205.656-.205 1.435v3.801z"/>
<path d="M392.537 118.204q-.683.582-1.32.82-.628.24-1.353.24-1.196 0-1.839-.581-.642-.588-.642-1.497 0-.533.24-.97.245-.445.635-.712.396-.266.888-.403.363-.096 1.094-.185 1.49-.177 2.195-.423.007-.253.007-.322 0-.752-.35-1.06-.47-.416-1.4-.416-.869 0-1.286.307-.41.301-.608 1.074l-1.203-.164q.164-.773.54-1.245.376-.478 1.087-.731.71-.26 1.647-.26.93 0 1.511.219.581.219.855.554.273.328.382.834.062.314.062 1.134v1.641q0 1.716.075 2.174.082.451.314.868h-1.285q-.191-.383-.246-.896zm-.102-2.748q-.67.274-2.01.465-.759.11-1.073.246-.315.137-.486.404-.17.26-.17.58 0 .493.368.821.376.328 1.094.328.711 0 1.265-.307.554-.315.813-.855.199-.417.199-1.23z"/>
<path d="M398.272 118l.178 1.086q-.52.11-.93.11-.67 0-1.039-.212-.369-.212-.52-.554-.15-.349-.15-1.456v-4.177h-.902v-.957h.903v-1.798l1.223-.738v2.536h1.237v.957h-1.237v4.245q0 .527.062.677.068.15.212.24.15.088.423.088.205 0 .54-.047z"/>
<path d="M403.365 121.882V111.84h1.121v.944q.397-.554.896-.828.499-.28 1.21-.28.93 0 1.64.479.711.478 1.074 1.353.362.868.362 1.907 0 1.115-.403 2.01-.397.889-1.162 1.367-.76.472-1.6.472-.615 0-1.107-.26-.486-.26-.8-.656v3.534zm1.114-6.37q0 1.4.568 2.07.567.67 1.374.67.82 0 1.401-.69.588-.697.588-2.153 0-1.388-.574-2.079-.567-.69-1.36-.69-.787 0-1.395.738-.602.732-.602 2.133z"/>
<path d="M410.693 115.47q0-2.016 1.121-2.987.937-.807 2.284-.807 1.497 0 2.447.985.95.977.95 2.707 0 1.4-.424 2.208-.417.8-1.223 1.244-.8.444-1.75.444-1.525 0-2.468-.977-.937-.978-.937-2.817zm1.265 0q0 1.395.608 2.092.609.69 1.532.69.916 0 1.524-.697t.608-2.126q0-1.347-.615-2.037-.608-.697-1.517-.697-.923 0-1.532.69-.608.69-.608 2.085z"/>
<path d="M418.445 116.933l1.217-.191q.103.731.567 1.12.472.39 1.313.39.848 0 1.258-.341.41-.35.41-.814 0-.417-.362-.656-.253-.164-1.258-.417-1.354-.342-1.88-.588-.52-.253-.793-.69-.267-.445-.267-.978 0-.485.22-.896.225-.417.608-.69.287-.212.779-.355.499-.15 1.066-.15.855 0 1.497.245.65.246.957.67.308.417.424 1.121l-1.203.164q-.082-.56-.478-.875-.39-.314-1.108-.314-.848 0-1.21.28t-.362.656q0 .24.15.431.15.198.472.328.184.069 1.087.315 1.305.348 1.818.574.52.219.814.642.294.424.294 1.053 0 .615-.363 1.162-.355.54-1.032.841-.677.294-1.531.294-1.415 0-2.16-.588-.739-.588-.944-1.743z"/>
<path d="M445.208 117.917v1.183h-6.625q-.013-.444.144-.854.253-.677.807-1.333.56-.657 1.613-1.518 1.634-1.34 2.208-2.12.574-.785.574-1.483 0-.731-.526-1.23-.52-.506-1.36-.506-.89 0-1.422.533-.534.533-.54 1.477l-1.265-.13q.13-1.415.977-2.153.848-.745 2.277-.745 1.442 0 2.283.8.84.8.84 1.982 0 .601-.245 1.182-.246.581-.82 1.224-.568.643-1.894 1.764-1.108.93-1.422 1.264-.314.328-.52.663z"/>
<path d="M446.527 114.158q0-1.778.362-2.858.37-1.087 1.087-1.675.725-.588 1.818-.588.807 0 1.415.329.609.32 1.005.936.397.609.622 1.49.226.875.226 2.366 0 1.763-.362 2.85-.363 1.08-1.087 1.675-.718.588-1.819.588-1.449 0-2.276-1.04-.991-1.25-.991-4.073zm1.265 0q0 2.467.574 3.288.58.813 1.428.813t1.422-.82q.581-.82.581-3.281 0-2.475-.58-3.288-.575-.814-1.436-.814-.848 0-1.354.718-.635.916-.635 3.384z"/>
<path d="M472.827 116.44l1.21.158q-.199 1.251-1.019 1.962-.813.704-2.003.704-1.49 0-2.4-.97-.902-.978-.902-2.797 0-1.175.39-2.057.39-.882 1.183-1.32.8-.444 1.736-.444 1.183 0 1.935.602.752.594.963 1.695l-1.196.185q-.17-.732-.608-1.101-.43-.37-1.046-.37-.93 0-1.51.67-.582.664-.582 2.106 0 1.463.56 2.126.561.663 1.463.663.725 0 1.21-.444.486-.444.616-1.367z"/>
<path d="M475.09 119.1v-7.26h1.1v1.019q.342-.533.91-.855.567-.328 1.291-.328.807 0 1.32.335.519.335.73.937.862-1.272 2.243-1.272 1.08 0 1.661.602.581.594.581 1.839v4.983h-1.223v-4.573q0-.739-.123-1.06-.117-.328-.431-.526-.315-.198-.738-.198-.766 0-1.272.512-.506.506-.506 1.627v4.218h-1.23v-4.717q0-.82-.3-1.23-.302-.41-.985-.41-.52 0-.964.273-.438.273-.636.8-.198.526-.198 1.517v3.767z"/>
<path d="M486.751 121.882V111.84h1.122v.944q.396-.554.895-.828.5-.28 1.21-.28.93 0 1.64.479.712.478 1.074 1.353.362.868.362 1.907 0 1.115-.403 2.01-.397.889-1.162 1.367-.759.472-1.6.472-.615 0-1.107-.26-.486-.26-.8-.656v3.534zm1.115-6.37q0 1.4.567 2.07.567.67 1.374.67.82 0 1.402-.69.587-.697.587-2.153 0-1.388-.574-2.079-.567-.69-1.36-.69-.786 0-1.395.738-.601.732-.601 2.133z"/>
<path d="M494.51 119.1v-10.021h1.23V119.1z"/>
<path d="M496.828 119.1l2.652-3.773-2.454-3.487h1.538l1.114 1.702q.315.486.506.814.3-.451.554-.8l1.223-1.716h1.47l-2.509 3.418 2.7 3.842h-1.51l-1.49-2.256-.397-.608-1.907 2.864z"/>
<path d="M525.121 115.586l1.326.335q-.417 1.634-1.504 2.495-1.08.855-2.645.855-1.62 0-2.639-.656-1.012-.663-1.545-1.914-.526-1.251-.526-2.687 0-1.565.595-2.727.601-1.17 1.702-1.771 1.107-.608 2.433-.608 1.504 0 2.53.765 1.025.766 1.428 2.154l-1.305.307q-.349-1.094-1.012-1.593-.663-.499-1.668-.499-1.155 0-1.935.554-.772.554-1.086 1.49-.315.93-.315 1.921 0 1.279.37 2.236.375.95 1.161 1.421.786.472 1.702.472 1.115 0 1.887-.642.773-.643 1.046-1.908z"/>
<path d="M540.97 119.1v-10.021h3.453q1.169 0 1.784.143.861.198 1.47.718.793.67 1.182 1.716.397 1.039.397 2.379 0 1.141-.267 2.023-.266.882-.683 1.463-.417.574-.916.91-.493.327-1.197.498-.697.171-1.606.171zm1.327-1.183h2.14q.99 0 1.551-.184.568-.185.903-.52.471-.471.731-1.264.267-.8.267-1.935 0-1.572-.52-2.413-.513-.848-1.25-1.135-.534-.205-1.717-.205h-2.105z"/>
<path d="M564.384 119.1v-10.021h7.246v1.182h-5.92v3.07h5.544v1.175h-5.544v3.411h6.153v1.183z"/>
<path d="M591.827 116.44l1.21.158q-.199 1.251-1.019 1.962-.813.704-2.003.704-1.49 0-2.4-.97-.902-.978-.902-2.797 0-1.175.39-2.057.39-.882 1.183-1.32.8-.444 1.736-.444 1.183 0 1.935.602.751.594.963 1.695l-1.196.185q-.17-.732-.608-1.101-.43-.37-1.046-.37-.93 0-1.51.67-.582.664-.582 2.106 0 1.463.56 2.126.561.663 1.463.663.725 0 1.21-.444.486-.444.616-1.367z"/>
<path d="M594.09 119.1v-7.26h1.1v1.019q.342-.533.91-.855.566-.328 1.291-.328.807 0 1.32.335.519.335.73.937.862-1.272 2.243-1.272 1.08 0 1.661.602.581.594.581 1.839v4.983h-1.223v-4.573q0-.739-.123-1.06-.117-.328-.431-.526-.315-.198-.738-.198-.766 0-1.272.512-.506.506-.506 1.627v4.218h-1.23v-4.717q0-.82-.3-1.23-.302-.41-.985-.41-.52 0-.964.273-.438.273-.636.8-.198.526-.198 1.517v3.767z"/>
<path d="M605.751 121.882V111.84h1.122v.944q.396-.554.895-.828.5-.28 1.21-.28.93 0 1.64.479.712.478 1.074 1.353.362.868.362 1.907 0 1.115-.403 2.01-.397.889-1.162 1.367-.759.472-1.6.472-.615 0-1.107-.26-.486-.26-.8-.656v3.534zm1.115-6.37q0 1.4.567 2.07.567.67 1.374.67.82 0 1.401-.69.588-.697.588-2.153 0-1.388-.574-2.079-.567-.69-1.36-.69-.786 0-1.395.738-.601.732-.601 2.133z"/>
<path d="M613.51 119.1v-10.021h1.23V119.1z"/>
<path d="M615.828 119.1l2.652-3.773-2.454-3.487h1.538l1.114 1.702q.315.486.506.814.3-.451.554-.8l1.223-1.716h1.47l-2.509 3.418 2.7 3.842h-1.51l-1.49-2.256-.397-.608-1.907 2.864z"/>
<path d="M637.818 119.1v-10.021h6.761v1.182h-5.434v3.104h4.703v1.182h-4.703v4.553z"/>
<path d="M661.255 119.1h-1.141v-10.021h1.23v3.575q.78-.978 1.99-.978.67 0 1.264.274.602.266.985.758.39.486.608 1.176.219.69.219 1.477 0 1.866-.923 2.885-.923 1.018-2.215 1.018-1.285 0-2.017-1.073zm-.013-3.685q0 1.306.355 1.887.581.95 1.572.95.807 0 1.395-.697.588-.704.588-2.092 0-1.422-.568-2.098-.56-.677-1.36-.677-.807 0-1.394.704-.588.697-.588 2.023z"/>
<path d="M667.449 115.47q0-2.016 1.12-2.987.937-.807 2.284-.807 1.497 0 2.447.985.95.977.95 2.707 0 1.4-.423 2.208-.417.8-1.224 1.244-.8.444-1.75.444-1.524 0-2.468-.977-.936-.978-.936-2.817zm1.264 0q0 1.395.609 2.092.608.69 1.531.69.916 0 1.524-.697.609-.697.609-2.126 0-1.347-.615-2.037-.609-.697-1.518-.697-.923 0-1.531.69-.609.69-.609 2.085z"/>
<path d="M680.45 119.1v-1.066q-.847 1.23-2.303 1.23-.643 0-1.203-.246-.554-.246-.827-.615-.267-.376-.376-.916-.075-.363-.075-1.149v-4.498h1.23v4.027q0 .963.075 1.298.116.486.492.766.376.273.93.273t1.04-.28q.484-.287.683-.772.205-.492.205-1.422v-3.89h1.23v7.26z"/>
<path d="M683.479 119.1v-7.26h1.107v1.032q.8-1.196 2.311-1.196.656 0 1.203.24.554.232.827.615.274.382.383.909.068.342.068 1.196v4.464h-1.23v-4.416q0-.752-.144-1.121-.143-.376-.512-.595-.363-.225-.855-.225-.786 0-1.36.499-.567.499-.567 1.893v3.965z"/>
<path d="M695.975 119.1v-.916q-.69 1.08-2.03 1.08-.868 0-1.6-.478-.724-.479-1.128-1.333-.396-.862-.396-1.976 0-1.087.362-1.969.362-.888 1.087-1.36.725-.472 1.62-.472.656 0 1.17.28.512.274.833.718v-3.595h1.224V119.1zm-3.89-3.623q0 1.394.588 2.085.588.69 1.388.69.807 0 1.367-.656.568-.663.568-2.017 0-1.49-.575-2.187-.574-.697-1.415-.697-.82 0-1.374.67-.547.67-.547 2.112z"/>
<path d="M705.627 118l.178 1.086q-.52.11-.93.11-.67 0-1.039-.212-.369-.212-.52-.554-.15-.349-.15-1.456v-4.177h-.902v-.957h.902v-1.798l1.224-.738v2.536h1.237v.957h-1.237v4.245q0 .527.062.677.068.15.212.24.15.088.423.088.205 0 .54-.047z"/>
<path d="M706.373 115.47q0-2.016 1.12-2.987.937-.807 2.284-.807 1.497 0 2.447.985.95.977.95 2.707 0 1.4-.424 2.208-.416.8-1.223 1.244-.8.444-1.75.444-1.525 0-2.468-.977-.936-.978-.936-2.817zm1.264 0q0 1.395.609 2.092.608.69 1.53.69.917 0 1.525-.697.609-.697.609-2.126 0-1.347-.616-2.037-.608-.697-1.517-.697-.923 0-1.531.69-.609.69-.609 2.085z"/>
<path d="M735.255 115.586l1.327.335q-.417 1.634-1.504 2.495-1.08.855-2.646.855-1.62 0-2.639-.656-1.011-.663-1.544-1.914-.527-1.251-.527-2.687 0-1.565.595-2.727.601-1.17 1.702-1.771 1.107-.608 2.434-.608 1.504 0 2.529.765 1.025.766 1.429 2.154l-1.306.307q-.349-1.094-1.012-1.593-.663-.499-1.668-.499-1.155 0-1.934.554-.773.554-1.087 1.49-.315.93-.315 1.921 0 1.279.37 2.236.375.95 1.162 1.421.786.472 1.702.472 1.114 0 1.886-.642.773-.643 1.046-1.908z"/>
<path d="M742.795 118.204q-.683.582-1.319.82-.629.24-1.353.24-1.197 0-1.84-.581-.642-.588-.642-1.497 0-.533.24-.97.245-.445.635-.712.397-.266.889-.403.362-.096 1.094-.185 1.49-.177 2.194-.423.007-.253.007-.322 0-.752-.349-1.06-.471-.416-1.401-.416-.868 0-1.285.307-.41.301-.609 1.074l-1.203-.164q.164-.773.54-1.245.376-.478 1.087-.731.711-.26 1.648-.26.93 0 1.51.219.581.219.855.554.273.328.383.834.061.314.061 1.134v1.641q0 1.716.075 2.174.082.451.315.868h-1.285q-.192-.383-.246-.896zm-.102-2.748q-.67.274-2.01.465-.759.11-1.073.246-.315.137-.485.404-.171.26-.171.58 0 .493.369.821.376.328 1.093.328.711 0 1.265-.307.554-.315.814-.855.198-.417.198-1.23z"/>
<path d="M749.754 115.49v.81h-4.542q-.009-.305.098-.586.174-.464.554-.914.384-.45 1.106-1.04 1.12-.92 1.514-1.454.394-.539.394-1.017 0-.501-.361-.844-.357-.347-.933-.347-.61 0-.975.366-.366.366-.37 1.013l-.868-.09q.09-.97.67-1.476.582-.511 1.562-.511.989 0 1.565.548.577.549.577 1.36 0 .412-.169.81-.169.4-.562.84-.39.44-1.299 1.21-.76.637-.975.866-.216.225-.356.455z"/>
<path d="M752.665 115.19v-1.885h-1.87v-.788h1.87v-1.87h.797v1.87h1.87v.788h-1.87v1.884z"/>
<path d="M774.77 115.17v-1.176l4.246-.007v3.718q-.978.78-2.017 1.176-1.039.39-2.133.39-1.476 0-2.686-.63-1.203-.635-1.819-1.831-.615-1.197-.615-2.673 0-1.463.608-2.728.616-1.271 1.764-1.886 1.149-.616 2.646-.616 1.087 0 1.962.356.881.349 1.38.977.5.63.76 1.641l-1.197.328q-.226-.765-.56-1.203-.336-.437-.958-.697-.622-.267-1.38-.267-.91 0-1.573.28-.663.274-1.073.725-.403.451-.629.991-.383.93-.383 2.017 0 1.34.458 2.242.465.902 1.347 1.34.882.437 1.873.437.861 0 1.682-.328.82-.335 1.244-.71v-1.867z"/>
<path d="M793.903 121.882V111.84h1.121v.944q.397-.554.896-.828.499-.28 1.21-.28.93 0 1.64.479.711.478 1.074 1.353.362.868.362 1.907 0 1.115-.403 2.01-.397.889-1.162 1.367-.76.472-1.6.472-.615 0-1.107-.26-.486-.26-.8-.656v3.534zm1.115-6.37q0 1.4.567 2.07.567.67 1.374.67.82 0 1.401-.69.588-.697.588-2.153 0-1.388-.574-2.079-.567-.69-1.36-.69-.786 0-1.395.738-.601.732-.601 2.133z"/>
<path d="M801.69 119.1v-10.021h1.23v3.595q.861-.998 2.174-.998.806 0 1.401.321.595.315.848.875.26.561.26 1.627v4.601h-1.23v-4.6q0-.923-.404-1.34-.397-.424-1.128-.424-.547 0-1.032.287-.479.28-.684.765-.205.486-.205 1.34v3.972z"/>
<path d="M809.018 115.47q0-2.016 1.12-2.987.937-.807 2.284-.807 1.497 0 2.447.985.95.977.95 2.707 0 1.4-.423 2.208-.417.8-1.224 1.244-.8.444-1.75.444-1.525 0-2.468-.977-.936-.978-.936-2.817zm1.264 0q0 1.395.609 2.092.608.69 1.53.69.917 0 1.525-.697.609-.697.609-2.126 0-1.347-.616-2.037-.608-.697-1.517-.697-.923 0-1.531.69-.609.69-.609 2.085z"/>
<path d="M816.77 116.933l1.216-.191q.103.731.568 1.12.471.39 1.312.39.848 0 1.258-.341.41-.35.41-.814 0-.417-.362-.656-.253-.164-1.258-.417-1.353-.342-1.88-.588-.52-.253-.793-.69-.266-.445-.266-.978 0-.485.218-.896.226-.417.609-.69.287-.212.78-.355.498-.15 1.065-.15.855 0 1.498.245.649.246.957.67.307.417.423 1.121l-1.203.164q-.082-.56-.478-.875-.39-.314-1.108-.314-.847 0-1.21.28-.362.28-.362.656 0 .24.15.431.15.198.472.328.185.069 1.087.315 1.306.348 1.818.574.52.219.814.642.294.424.294 1.053 0 .615-.362 1.162-.356.54-1.033.841-.676.294-1.531.294-1.415 0-2.16-.588-.738-.588-.943-1.743z"/>
<path d="M824.262 121.882V111.84h1.12v.944q.397-.554.896-.828.5-.28 1.21-.28.93 0 1.64.479.712.478 1.074 1.353.362.868.362 1.907 0 1.115-.403 2.01-.396.889-1.162 1.367-.759.472-1.6.472-.615 0-1.107-.26-.485-.26-.8-.656v3.534zm1.114-6.37q0 1.4.567 2.07.568.67 1.374.67.82 0 1.402-.69.588-.697.588-2.153 0-1.388-.575-2.079-.567-.69-1.36-.69-.786 0-1.394.738-.602.732-.602 2.133z"/>
<path d="M832.048 119.1v-10.021h1.23v3.595q.862-.998 2.174-.998.807 0 1.402.321.594.315.847.875.26.561.26 1.627v4.601h-1.23v-4.6q0-.923-.404-1.34-.396-.424-1.128-.424-.547 0-1.032.287-.479.28-.684.765-.205.486-.205 1.34v3.972z"/>
<path d="M857.537 118.204q-.683.582-1.32.82-.628.24-1.353.24-1.196 0-1.839-.581-.642-.588-.642-1.497 0-.533.24-.97.245-.445.635-.712.396-.266.888-.403.363-.096 1.094-.185 1.49-.177 2.195-.423.007-.253.007-.322 0-.752-.35-1.06-.47-.416-1.4-.416-.869 0-1.286.307-.41.301-.608 1.074l-1.203-.164q.164-.773.54-1.245.376-.478 1.087-.731.71-.26 1.647-.26.93 0 1.511.219.581.219.855.554.273.328.382.834.062.314.062 1.134v1.641q0 1.716.075 2.174.082.451.315.868h-1.286q-.191-.383-.246-.896zm-.102-2.748q-.67.274-2.01.465-.759.11-1.073.246-.315.137-.486.404-.17.26-.17.58 0 .493.368.821.376.328 1.094.328.711 0 1.265-.307.554-.315.813-.855.199-.417.199-1.23z"/>
<path d="M863.272 118l.178 1.086q-.52.11-.93.11-.67 0-1.039-.212-.369-.212-.52-.554-.15-.349-.15-1.456v-4.177h-.902v-.957h.903v-1.798l1.223-.738v2.536h1.237v.957h-1.237v4.245q0 .527.062.677.068.15.212.24.15.088.423.088.205 0 .54-.047z"/>
<path d="M868.365 121.882V111.84h1.121v.944q.397-.554.896-.828.499-.28 1.21-.28.93 0 1.64.479.711.478 1.074 1.353.362.868.362 1.907 0 1.115-.403 2.01-.397.889-1.162 1.367-.76.472-1.6.472-.615 0-1.107-.26-.486-.26-.8-.656v3.534zm1.114-6.37q0 1.4.568 2.07.567.67 1.374.67.82 0 1.401-.69.588-.697.588-2.153 0-1.388-.574-2.079-.567-.69-1.36-.69-.787 0-1.395.738-.602.732-.602 2.133z"/>
<path d="M875.693 115.47q0-2.016 1.121-2.987.937-.807 2.284-.807 1.497 0 2.447.985.95.977.95 2.707 0 1.4-.424 2.208-.417.8-1.223 1.244-.8.444-1.75.444-1.525 0-2.468-.977-.937-.978-.937-2.817zm1.265 0q0 1.395.608 2.092.609.69 1.532.69.916 0 1.524-.697t.608-2.126q0-1.347-.615-2.037-.608-.697-1.517-.697-.923 0-1.532.69-.608.69-.608 2.085z"/>
<path d="M883.445 116.933l1.217-.191q.103.731.567 1.12.472.39 1.313.39.848 0 1.258-.341.41-.35.41-.814 0-.417-.362-.656-.253-.164-1.258-.417-1.354-.342-1.88-.588-.52-.253-.793-.69-.267-.445-.267-.978 0-.485.22-.896.225-.417.608-.69.287-.212.779-.355.499-.15 1.066-.15.855 0 1.497.245.65.246.957.67.308.417.424 1.121l-1.203.164q-.082-.56-.478-.875-.39-.314-1.108-.314-.848 0-1.21.28t-.362.656q0 .24.15.431.15.198.472.328.184.069 1.087.315 1.305.348 1.818.574.52.219.814.642.294.424.294 1.053 0 .615-.363 1.162-.355.54-1.032.841-.677.294-1.531.294-1.415 0-2.16-.588-.739-.588-.944-1.743z"/>
<path d="M910.208 117.917v1.183h-6.624q-.014-.444.143-.854.253-.677.807-1.333.56-.657 1.613-1.518 1.634-1.34 2.208-2.12.574-.785.574-1.483 0-.731-.526-1.23-.52-.506-1.36-.506-.89 0-1.422.533-.534.533-.54 1.477l-1.265-.13q.13-1.415.977-2.153.848-.745 2.277-.745 1.442 0 2.283.8.84.8.84 1.982 0 .601-.245 1.182-.246.581-.82 1.224-.568.643-1.894 1.764-1.108.93-1.422 1.264-.314.328-.52.663z"/>
<path d="M911.527 116.475l1.292-.11q.143.944.663 1.422.526.472 1.265.472.888 0 1.503-.67.616-.67.616-1.777 0-1.053-.595-1.661-.588-.609-1.545-.609-.595 0-1.073.274-.479.266-.752.697l-1.155-.15.97-5.148h4.984v1.176h-4l-.54 2.693q.903-.629 1.894-.629 1.313 0 2.215.91.902.909.902 2.338 0 1.36-.793 2.351-.963 1.217-2.631 1.217-1.368 0-2.236-.766-.861-.765-.984-2.03z"/>
<path d="M933.483 119.1v-6.303h-1.087v-.957h1.087v-.772q0-.732.13-1.087.178-.479.622-.773.452-.3 1.258-.3.52 0 1.149.123l-.185 1.073q-.383-.068-.725-.068-.56 0-.793.239-.232.24-.232.895v.67h1.415v.957h-1.415v6.303z"/>
<path d="M937.065 119.1v-7.26h1.108v1.1q.424-.772.78-1.018.361-.246.792-.246.622 0 1.265.397l-.424 1.141q-.451-.266-.902-.266-.404 0-.725.246-.321.239-.458.67-.205.656-.205 1.435v3.801z"/>
<path d="M941.283 115.47q0-2.016 1.121-2.987.937-.807 2.283-.807 1.498 0 2.448.985.95.977.95 2.707 0 1.4-.424 2.208-.417.8-1.223 1.244-.8.444-1.75.444-1.525 0-2.468-.977-.937-.978-.937-2.817zm1.265 0q0 1.395.608 2.092.609.69 1.531.69.917 0 1.525-.697.608-.697.608-2.126 0-1.347-.615-2.037-.608-.697-1.518-.697-.922 0-1.53.69-.61.69-.61 2.085z"/>
<path d="M949.527 119.1v-7.26h1.1v1.019q.343-.533.91-.855.567-.328 1.292-.328.807 0 1.32.335.519.335.73.937.862-1.272 2.243-1.272 1.08 0 1.661.602.581.594.581 1.839v4.983h-1.223v-4.573q0-.739-.123-1.06-.117-.328-.431-.526-.315-.198-.738-.198-.766 0-1.272.512-.506.506-.506 1.627v4.218h-1.23v-4.717q0-.82-.301-1.23-.3-.41-.984-.41-.52 0-.964.273-.438.273-.636.8-.198.526-.198 1.517v3.767z"/>
<path d="M964.587 116.933l1.217-.191q.102.731.567 1.12.472.39 1.313.39.847 0 1.257-.341.41-.35.41-.814 0-.417-.362-.656-.253-.164-1.258-.417-1.353-.342-1.88-.588-.519-.253-.792-.69-.267-.445-.267-.978 0-.485.219-.896.225-.417.608-.69.287-.212.78-.355.498-.15 1.066-.15.854 0 1.497.245.65.246.957.67.308.417.424 1.121l-1.203.164q-.082-.56-.479-.875-.39-.314-1.107-.314-.848 0-1.21.28-.363.28-.363.656 0 .24.15.431.151.198.473.328.184.069 1.086.315 1.306.348 1.819.574.52.219.813.642.294.424.294 1.053 0 .615-.362 1.162-.356.54-1.032.841-.677.294-1.532.294-1.415 0-2.16-.588-.738-.588-.943-1.743z"/>
<path d="M972.08 121.882V111.84h1.12v.944q.397-.554.896-.828.499-.28 1.21-.28.93 0 1.64.479.711.478 1.074 1.353.362.868.362 1.907 0 1.115-.403 2.01-.397.889-1.163 1.367-.758.472-1.6.472-.614 0-1.107-.26-.485-.26-.8-.656v3.534zm1.113-6.37q0 1.4.568 2.07.567.67 1.374.67.82 0 1.401-.69.588-.697.588-2.153 0-1.388-.574-2.079-.568-.69-1.36-.69-.787 0-1.395.738-.602.732-.602 2.133z"/>
<path d="M984.835 116.762l1.271.157q-.3 1.115-1.114 1.73-.813.615-2.078.615-1.593 0-2.53-.977-.929-.985-.929-2.755 0-1.832.943-2.844.944-1.012 2.448-1.012 1.456 0 2.379.991.922.992.922 2.79 0 .109-.007.328h-5.414q.069 1.196.677 1.832.609.635 1.518.635.677 0 1.155-.355.479-.356.759-1.135zm-4.04-1.99h4.054q-.082-.915-.465-1.373-.588-.711-1.525-.711-.847 0-1.428.567-.575.568-.636 1.518z"/>
<path d="M992.389 116.44l1.21.158q-.199 1.251-1.019 1.962-.813.704-2.003.704-1.49 0-2.4-.97-.902-.978-.902-2.797 0-1.175.39-2.057.39-.882 1.183-1.32.8-.444 1.736-.444 1.183 0 1.935.602.752.594.963 1.695l-1.196.185q-.17-.732-.608-1.101-.43-.37-1.046-.37-.93 0-1.51.67-.582.664-.582 2.106 0 1.463.56 2.126.561.663 1.463.663.725 0 1.21-.444.486-.444.616-1.367z"/>
<path d="M994.658 110.494v-1.415h1.23v1.415zm0 8.606v-7.26h1.23v7.26z"/>
<path d="M1002.731 116.762l1.272.157q-.3 1.115-1.114 1.73-.814.615-2.079.615-1.592 0-2.529-.977-.93-.985-.93-2.755 0-1.832.944-2.844.943-1.012 2.447-1.012 1.456 0 2.38.991.922.992.922 2.79 0 .109-.01.328h-5.414q.068 1.196.677 1.832.608.635 1.517.635.677 0 1.156-.355.478-.356.758-1.135zm-4.04-1.99h4.054q-.082-.915-.465-1.373-.588-.711-1.524-.711-.848 0-1.429.567-.574.568-.636 1.518z"/>
<path d="M1005.056 116.933l1.216-.191q.103.731.568 1.12.472.39 1.312.39.848 0 1.258-.341.41-.35.41-.814 0-.417-.362-.656-.253-.164-1.258-.417-1.353-.342-1.88-.588-.52-.253-.793-.69-.266-.445-.266-.978 0-.485.219-.896.225-.417.608-.69.287-.212.78-.355.498-.15 1.066-.15.854 0 1.497.245.65.246.957.67.307.417.424 1.121l-1.204.164q-.082-.56-.478-.875-.39-.314-1.107-.314-.848 0-1.21.28-.363.28-.363.656 0 .24.15.431.151.198.472.328.185.069 1.087.315 1.306.348 1.819.574.52.219.813.642.294.424.294 1.053 0 .615-.362 1.162-.356.54-1.033.841-.676.294-1.53.294-1.416 0-2.161-.588-.738-.588-.943-1.743z"/>
<path d="M1025.975 119.1v-10.021h1.996l2.372 7.095q.328.991.478 1.484.171-.547.534-1.607l2.399-6.972h1.784V119.1h-1.278v-8.388l-2.912 8.388h-1.197l-2.898-8.531v8.531z"/>
<path d="M1037.063 115.47q0-2.016 1.12-2.987.937-.807 2.284-.807 1.497 0 2.447.985.95.977.95 2.707 0 1.4-.424 2.208-.417.8-1.223 1.244-.8.444-1.75.444-1.525 0-2.468-.977-.936-.978-.936-2.817zm1.264 0q0 1.395.608 2.092.609.69 1.532.69.916 0 1.524-.697.609-.697.609-2.126 0-1.347-.616-2.037-.608-.697-1.517-.697-.923 0-1.531.69-.609.69-.609 2.085z"/>
<path d="M1050.064 119.1v-1.066q-.847 1.23-2.303 1.23-.643 0-1.203-.246-.554-.246-.827-.615-.267-.376-.376-.916-.075-.363-.075-1.149v-4.498h1.23v4.027q0 .963.075 1.298.116.486.492.766.376.273.93.273.553 0 1.039-.28.485-.287.683-.772.206-.492.206-1.422v-3.89h1.23v7.26z"/>
<path d="M1052.6 116.933l1.217-.191q.103.731.568 1.12.471.39 1.312.39.848 0 1.258-.341.41-.35.41-.814 0-.417-.362-.656-.253-.164-1.258-.417-1.353-.342-1.88-.588-.52-.253-.793-.69-.266-.445-.266-.978 0-.485.218-.896.226-.417.609-.69.287-.212.78-.355.498-.15 1.065-.15.855 0 1.498.245.649.246.957.67.307.417.423 1.121l-1.203.164q-.082-.56-.478-.875-.39-.314-1.108-.314-.847 0-1.21.28-.362.28-.362.656 0 .24.15.431.15.198.472.328.185.069 1.087.315 1.306.348 1.819.574.519.219.813.642.294.424.294 1.053 0 .615-.362 1.162-.356.54-1.033.841-.676.294-1.53.294-1.416 0-2.161-.588-.738-.588-.943-1.743z"/>
<path d="M1065.063 116.762l1.271.157q-.3 1.115-1.114 1.73-.814.615-2.078.615-1.593 0-2.53-.977-.93-.985-.93-2.755 0-1.832.944-2.844.943-1.012 2.447-1.012 1.456 0 2.38.991.922.992.922 2.79 0 .109-.01.328h-5.414q.068 1.196.677 1.832.608.635 1.517.635.677 0 1.156-.355.478-.356.758-1.135zm-4.04-1.99h4.053q-.082-.915-.465-1.373-.588-.711-1.524-.711-.848 0-1.429.567-.574.568-.635 1.518z"/>
<path d="M1083.707 118l.178 1.086q-.52.11-.93.11-.67 0-1.039-.212-.37-.212-.52-.554-.15-.349-.15-1.456v-4.177h-.902v-.957h.902v-1.798l1.224-.738v2.536h1.237v.957h-1.237v4.245q0 .527.062.677.068.15.212.24.15.088.424.088.205 0 .54-.047z"/>
<path d="M1084.897 119.1v-7.26h1.107v1.1q.424-.772.78-1.018.361-.246.792-.246.622 0 1.265.397l-.424 1.141q-.451-.266-.902-.266-.404 0-.725.246-.321.239-.458.67-.205.656-.205 1.435v3.801z"/>
<path d="M1094.31 118.204q-.684.582-1.32.82-.629.24-1.353.24-1.197 0-1.84-.581-.642-.588-.642-1.497 0-.533.24-.97.246-.445.635-.712.397-.266.889-.403.362-.096 1.094-.185 1.49-.177 2.194-.423.01-.253.01-.322 0-.752-.349-1.06-.471-.416-1.401-.416-.868 0-1.285.307-.41.301-.609 1.074l-1.203-.164q.164-.773.54-1.245.376-.478 1.087-.731.711-.26 1.648-.26.93 0 1.51.219.582.219.855.554.273.328.383.834.062.314.062 1.134v1.641q0 1.716.075 2.174.082.451.314.868h-1.285q-.191-.383-.246-.896zm-.103-2.748q-.67.274-2.01.465-.758.11-1.073.246-.314.137-.485.404-.171.26-.171.58 0 .493.369.821.376.328 1.094.328.71 0 1.264-.307.554-.315.814-.855.198-.417.198-1.23z"/>
<path d="M1097.358 119.1v-7.26h1.108v1.032q.8-1.196 2.31-1.196.657 0 1.204.24.553.232.827.615.273.382.383.909.068.342.068 1.196v4.464h-1.231v-4.416q0-.752-.143-1.121-.144-.376-.513-.595-.362-.225-.855-.225-.786 0-1.36.499-.567.499-.567 1.893v3.965z"/>
<path d="M1104.652 116.933l1.217-.191q.103.731.567 1.12.472.39 1.313.39.848 0 1.258-.341.41-.35.41-.814 0-.417-.362-.656-.253-.164-1.258-.417-1.354-.342-1.88-.588-.52-.253-.793-.69-.267-.445-.267-.978 0-.485.22-.896.225-.417.608-.69.287-.212.779-.355.499-.15 1.066-.15.855 0 1.497.245.65.246.957.67.308.417.424 1.121l-1.203.164q-.082-.56-.478-.875-.39-.314-1.108-.314-.847 0-1.21.28-.362.28-.362.656 0 .24.15.431.15.198.472.328.185.069 1.087.315 1.306.348 1.818.574.52.219.814.642.294.424.294 1.053 0 .615-.363 1.162-.355.54-1.032.841-.677.294-1.531.294-1.415 0-2.16-.588-.739-.588-.944-1.743z"/>
<path d="M1112.151 110.494v-1.415h1.23v1.415zm0 8.606v-7.26h1.23v7.26z"/>
<path d="M1120.225 116.762l1.271.157q-.3 1.115-1.114 1.73-.814.615-2.078.615-1.593 0-2.53-.977-.93-.985-.93-2.755 0-1.832.944-2.844.943-1.012 2.447-1.012 1.456 0 2.38.991.922.992.922 2.79 0 .109-.01.328h-5.414q.068 1.196.677 1.832.608.635 1.517.635.677 0 1.156-.355.478-.356.758-1.135zm-4.04-1.99h4.053q-.082-.915-.465-1.373-.587-.711-1.524-.711-.848 0-1.429.567-.574.568-.635 1.518z"/>
<path d="M1123.041 119.1v-7.26h1.107v1.032q.8-1.196 2.311-1.196.656 0 1.203.24.554.232.827.615.274.382.383.909.068.342.068 1.196v4.464h-1.23v-4.416q0-.752-.144-1.121-.143-.376-.513-.595-.362-.225-.854-.225-.786 0-1.36.499-.568.499-.568 1.893v3.965z"/>
<path d="M1133.514 118l.177 1.086q-.52.11-.93.11-.67 0-1.038-.212-.37-.212-.52-.554-.15-.349-.15-1.456v-4.177h-.903v-.957h.903v-1.798l1.223-.738v2.536h1.238v.957h-1.238v4.245q0 .527.062.677.068.15.212.24.15.088.424.088.205 0 .54-.047z"/>
<path d="M1152.827 116.44l1.21.158q-.199 1.251-1.019 1.962-.813.704-2.003.704-1.49 0-2.4-.97-.902-.978-.902-2.797 0-1.175.39-2.057.39-.882 1.183-1.32.8-.444 1.736-.444 1.183 0 1.935.602.752.594.963 1.695l-1.196.185q-.17-.732-.608-1.101-.43-.37-1.046-.37-.93 0-1.51.67-.582.664-.582 2.106 0 1.463.56 2.126.561.663 1.464.663.724 0 1.21-.444.485-.444.615-1.367z"/>
<path d="M1155.09 119.1v-7.26h1.1v1.019q.342-.533.91-.855.567-.328 1.291-.328.807 0 1.32.335.519.335.73.937.862-1.272 2.243-1.272 1.08 0 1.661.602.581.594.581 1.839v4.983h-1.223v-4.573q0-.739-.123-1.06-.117-.328-.431-.526t-.738-.198q-.766 0-1.272.512-.506.506-.506 1.627v4.218h-1.23v-4.717q0-.82-.3-1.23-.302-.41-.985-.41-.52 0-.964.273-.438.273-.636.8-.198.526-.198 1.517v3.767z"/>
<path d="M1166.752 121.882V111.84h1.12v.944q.397-.554.896-.828.5-.28 1.21-.28.93 0 1.64.479.712.478 1.074 1.353.362.868.362 1.907 0 1.115-.403 2.01-.397.889-1.162 1.367-.759.472-1.6.472-.615 0-1.107-.26-.486-.26-.8-.656v3.534zm1.114-6.37q0 1.4.567 2.07.567.67 1.374.67.82 0 1.401-.69.588-.697.588-2.153 0-1.388-.574-2.079-.567-.69-1.36-.69-.786 0-1.395.738-.601.732-.601 2.133z"/>
<path d="M1174.51 119.1v-10.021h1.23V119.1z"/>
<path d="M1176.828 119.1l2.652-3.773-2.454-3.487h1.538l1.114 1.702q.315.486.506.814.3-.451.554-.8l1.223-1.716h1.47l-2.509 3.418 2.7 3.842h-1.51l-1.49-2.256-.397-.608-1.907 2.864z"/>
<path d="M1198.012 119.1v-10.021h1.326v4.115h5.209v-4.115h1.326V119.1h-1.326v-4.724h-5.21v4.724z"/>
<path d="M1224.307 119.1v-10.021h1.326V119.1z"/>
<path d="M1244.85 116.256l1.195-.164q.048 1.149.431 1.572.383.424 1.06.424.499 0 .861-.225.362-.233.499-.622.137-.397.137-1.258v-6.904h1.326v6.829q0 1.257-.308 1.948-.3.69-.964 1.053-.656.362-1.545.362-1.319 0-2.023-.759-.697-.759-.67-2.256z"/>
</svg>
