<svg viewBox="0 0 1261 122" xmlns="http://www.w3.org/2000/svg">
<desc>Created with https://vsm.github.io/demo</desc>
<style>
rect,path,text{stroke:none}
.box-border{stroke:#d3d9e5;stroke-width:1px;fill:none}
.foot{stroke:#b6b6b6}.foot.stub{stroke:#cbcbcb}
.back,.leg{stroke:#7a7a7a}.obj,.par{stroke:#7a7a7a;fill:none}
.rel,.lis{fill:#7a7a7a}
.back.stub,.leg.stub,.obj.stub{stroke:#c3c3c3}
.rel.stub{fill:#c3c3c3}
.obj.uc,.par.uc,.leg.uc{stroke:#2e48ff;opacity:.56}
.rel.uc,.lis.uc{fill:#2e48ff;opacity:.56}.foot.uc{stroke:#e6e6e6}
.back.ref,.leg.ref,.foot.ref{stroke-dasharray:2 1}
.pos-hl,.hl-leg-under{fill:#f0f4fb}
.hl-back-top,.hl-leg{fill:#e5e9fb}
.ri-fg{stroke:#aabcce;stroke-width:2px}.ri-fg.hl{stroke:#fff}
.ri-bg{fill:none}.ri-bg.hl{fill:#7491ab}
.r.ref{stroke:#e2e6f0;fill:#e2e6f0}
.r.ref-bord{stroke:#b1bed8;stroke-dasharray:2 1.5}
.r.ref.edit{stroke:none}
.r.inst{stroke:#b1bed8;fill:#e2e6f0}
.r.inst.edit,.r.ref-bord.edit{stroke:#c4c4c4}
.r.class{stroke:#e5c547;fill:#f9f2b9}
.r.class.edit{stroke:#ebd262}
.r.lit{stroke:#d8b1ba;fill:#f0e2e6}
.r.lit.edit{stroke:#e1c2c7}
.r.edit,.r.ref-bord{fill:none}
.r.inst.end{stroke:#f0f0f0}
.r.focal{stroke:#aaa;stroke-dasharray:.1 3.4;stroke-width:1.7px;stroke-linecap:round}
.textcursor{stroke:#000;stroke-width:1px}
.t{font:11px tahoma,sans-serif;white-space:pre}
.t.inst,.t.ref{fill:#1c2a47}
.t.edit,.t.end{fill:#7a7a7a}.t.plac{fill:#aaa}
.t.class{fill:#2a2a05}.t.lit{fill:#200505}
.mouse{stroke:#000;fill:#fff;stroke-width:.5px}
.click{stroke:#000;fill:none;stroke-width:.8px}
/*sketch style*/
.box-border{stroke:#d8d8d8}
.back,.leg,.obj,.par{stroke:#000;stroke-width:1.2px}
.rel,.lis{fill:#000}
.back.stub,.leg.stub,.obj.stub{stroke:#eee;stroke-width:1.2px}
.rel.stub{fill:#eee}
.foot.stub{stroke:#f2f2f2;stroke-width:1.2px}
.back.ref,.leg.ref,.foot.ref{stroke-dasharray:2.6 1.3}
.r.ref-bord{stroke-dasharray:2.6 1.95}
.r.focal{stroke-dasharray:.1 4;stroke-width:2px}
.r{stroke-width:1.35px}
.r.class,.r.lit{fill:none}
.r.ref-bord{stroke:#000}
.t{font:14px arial;text-anchor:middle}
.t.inst,.t.ref,.t.class,.t.lit{fill:#000}
.t.edit,.t.plac,.t.end{fill:#aaa;text-anchor:start}
.hide,.r.end.hide{stroke:none;fill:none}
</style>
<g>
<line class="back" x1="272" y1="88.6" x2="368.2" y2="88.6"/>
<line class="leg" x1="272.6" y1="102.2" x2="272.6" y2="88"/>
<line class="leg" x1="325.6" y1="95.81" x2="325.6" y2="88"/>
<path class="rel" d="M325.6 94.61 L329.89 102.2 H321.31 Z"/>
<line class="leg" x1="367.6" y1="101" x2="367.6" y2="88"/>
<path class="obj" d="M363.75 95.81 L367.6 101 L371.45 95.81"/>
</g><g>
<line class="back" x1="272" y1="66.6" x2="451.2" y2="66.6"/>
<line class="leg" x1="272.6" y1="80.2" x2="272.6" y2="66"/>
<line class="leg" x1="410.6" y1="95.81" x2="410.6" y2="66"/>
<path class="rel" d="M410.6 94.61 L414.89 102.2 H406.31 Z"/>
<line class="leg" x1="450.6" y1="101" x2="450.6" y2="66"/>
<path class="obj" d="M446.75 95.81 L450.6 101 L454.45 95.81"/>
</g><g>
<line class="back" x1="231" y1="44.6" x2="273.2" y2="44.6"/>
<line class="leg" x1="231.6" y1="102.2" x2="231.6" y2="44"/>
<line class="leg" x1="272.6" y1="57" x2="272.6" y2="44"/>
<path class="obj" d="M268.75 51.81 L272.6 57 L276.45 51.81"/>
<line class="foot stub" x1="249.3" y1="49.7" x2="254.9" y2="49.7"/>
<line class="leg stub" x1="252.1" y1="45.2" x2="252.1" y2="49.1"/>
<path class="rel stub" d="M252.1 46.15 L253.8 49.1 H250.4 Z"/>
</g><g>
<line class="back" x1="489" y1="88.6" x2="573.2" y2="88.6"/>
<line class="back two" x1="489" y1="90.93" x2="573.2" y2="90.93"/>
<line class="leg" x1="489.6" y1="95.82" x2="489.6" y2="88"/>
<path class="lis" d="M486.08 95.82 H493.12 V102.2 H486.08 Z"/>
<line class="leg" x1="526.6" y1="102.2" x2="526.6" y2="88"/>
<line class="leg" x1="549.6" y1="102.2" x2="549.6" y2="88"/>
<line class="leg" x1="572.6" y1="102.2" x2="572.6" y2="88"/>
</g><g>
<line class="back" x1="645" y1="88.6" x2="746.2" y2="88.6"/>
<line class="leg" x1="645.6" y1="102.2" x2="645.6" y2="88"/>
<line class="leg" x1="690.6" y1="95.81" x2="690.6" y2="88"/>
<path class="rel" d="M690.6 94.61 L694.89 102.2 H686.31 Z"/>
<line class="leg" x1="745.6" y1="101" x2="745.6" y2="88"/>
<path class="obj" d="M741.75 95.81 L745.6 101 L749.45 95.81"/>
</g><g>
<line class="back" x1="820" y1="88.6" x2="916.2" y2="88.6"/>
<line class="leg" x1="820.6" y1="102.2" x2="820.6" y2="88"/>
<line class="leg" x1="875.6" y1="95.81" x2="875.6" y2="88"/>
<path class="rel" d="M875.6 94.61 L879.89 102.2 H871.31 Z"/>
<line class="leg" x1="915.6" y1="101" x2="915.6" y2="88"/>
<path class="obj" d="M911.75 95.81 L915.6 101 L919.45 95.81"/>
</g><g>
<line class="back" x1="778" y1="66.6" x2="821.2" y2="66.6"/>
<line class="leg" x1="778.6" y1="102.2" x2="778.6" y2="66"/>
<line class="leg" x1="820.6" y1="79" x2="820.6" y2="66"/>
<path class="obj" d="M816.75 73.81 L820.6 79 L824.45 73.81"/>
<line class="foot stub" x1="796.8" y1="71.7" x2="802.4" y2="71.7"/>
<line class="leg stub" x1="799.6" y1="67.2" x2="799.6" y2="71.1"/>
<path class="rel stub" d="M799.6 68.15 L801.3 71.1 H797.9 Z"/>
</g><g>
<line class="back" x1="778" y1="44.6" x2="1051.2" y2="44.6"/>
<line class="leg" x1="778.6" y1="58.2" x2="778.6" y2="44"/>
<line class="leg" x1="976.6" y1="95.81" x2="976.6" y2="44"/>
<path class="rel" d="M976.6 94.61 L980.89 102.2 H972.31 Z"/>
<line class="leg" x1="1050.6" y1="101" x2="1050.6" y2="44"/>
<path class="obj" d="M1046.75 95.81 L1050.6 101 L1054.45 95.81"/>
</g><g>
<line class="back" x1="608" y1="22.6" x2="779.2" y2="22.6"/>
<line class="back two" x1="608" y1="24.93" x2="779.2" y2="24.93"/>
<line class="leg" x1="608.6" y1="95.82" x2="608.6" y2="22"/>
<path class="lis" d="M605.08 95.82 H612.12 V102.2 H605.08 Z"/>
<line class="leg" x1="645.6" y1="80.2" x2="645.6" y2="22"/>
<line class="leg" x1="778.6" y1="36.2" x2="778.6" y2="22"/>
</g><g>
<line class="back" x1="1169" y1="88.6" x2="1253.2" y2="88.6"/>
<line class="back two" x1="1169" y1="90.93" x2="1253.2" y2="90.93"/>
<line class="leg" x1="1169.6" y1="95.82" x2="1169.6" y2="88"/>
<path class="lis" d="M1166.08 95.82 H1173.12 V102.2 H1166.08 Z"/>
<line class="leg" x1="1206.6" y1="102.2" x2="1206.6" y2="88"/>
<line class="leg" x1="1229.6" y1="102.2" x2="1229.6" y2="88"/>
<line class="leg" x1="1252.6" y1="102.2" x2="1252.6" y2="88"/>
</g><g>
<line class="back" x1="1111" y1="66.6" x2="1170.2" y2="66.6"/>
<line class="leg" x1="1169.6" y1="80.2" x2="1169.6" y2="66"/>
<line class="leg" x1="1111.6" y1="101" x2="1111.6" y2="66"/>
<path class="obj" d="M1107.75 95.81 L1111.6 101 L1115.45 95.81"/>
<line class="foot stub" x1="1137.8" y1="71.7" x2="1143.4" y2="71.7"/>
<line class="leg stub" x1="1140.6" y1="67.2" x2="1140.6" y2="71.1"/>
<path class="rel stub" d="M1140.6 68.15 L1142.3 71.1 H1138.9 Z"/>
</g><g>
<line class="back" x1="96" y1="0.6" x2="1170.2" y2="0.6"/>
<line class="back two" x1="96" y1="2.93" x2="1170.2" y2="2.93"/>
<line class="leg" x1="96.6" y1="95.82" x2="96.6" y2="0"/>
<path class="lis" d="M93.08 95.82 H100.12 V102.2 H93.08 Z"/>
<line class="leg" x1="208.6" y1="102.2" x2="208.6" y2="0"/>
<line class="leg" x1="231.6" y1="36.2" x2="231.6" y2="0"/>
<line class="leg" x1="489.6" y1="80.2" x2="489.6" y2="0"/>
<line class="leg" x1="608.6" y1="14.2" x2="608.6" y2="0"/>
<line class="leg" x1="1169.6" y1="58.2" x2="1169.6" y2="0"/>
</g>
<text class="t inst" x="97" y="119.1" width="187.4"><tspan>protein assembly </tspan
><tspan font-style="italic">(complex of)</tspan></text>
<text class="t inst" x="208.5" y="119.1" width="10.4">A</text>
<text class="t inst" x="231.5" y="119.1" width="10.4">B</text>
<text class="t inst" x="272.5" y="119.1" width="46.4">phosph</text>
<text class="t inst" x="326" y="119.1" width="35.4">at res</text>
<text class="t inst" x="367.5" y="119.1" width="22.4">Ser</text>
<text class="t inst" x="410.5" y="119.1" width="38.4">at pos</text>
<text class="t inst" x="450.5" y="119.1" width="16.4">20</text>
<text class="t inst" x="490" y="119.1" width="37.4">cmplx</text>
<text class="t inst" x="526.5" y="119.1" width="10.4">C</text>
<text class="t inst" x="549.5" y="119.1" width="10.4">D</text>
<text class="t inst" x="572.5" y="119.1" width="10.4">E</text>
<text class="t inst" x="609" y="119.1" width="37.4">cmplx</text>
<text class="t inst" x="645.5" y="119.1" width="10.4">F</text>
<text class="t inst" x="691" y="119.1" width="55.4">bound to</text>
<text class="t inst" x="746" y="119.1" width="29.4"><tspan>Ca</tspan
><tspan font-size="9.6" dy="-2.8">2+</tspan></text>
<text class="t inst" x="779" y="119.1" width="11.4">G</text>
<text class="t inst" x="820.5" y="119.1" width="46.4">phosph</text>
<text class="t inst" x="875.5" y="119.1" width="38.4">at pos</text>
<text class="t inst" x="915.5" y="119.1" width="16.4">25</text>
<text class="t inst" x="976.5" y="119.1" width="80.4">from species</text>
<text class="t inst" x="1050.5" y="119.1" width="42.4">Mouse</text>
<text class="t inst" x="1111.5" y="119.1" width="54.4">transient</text>
<text class="t inst" x="1170" y="119.1" width="37.4">cmplx</text>
<text class="t inst" x="1206.5" y="119.1" width="10.4">H</text>
<text class="t inst" x="1229.5" y="119.1" width="10.4">I</text>
<text class="t inst" x="1252.5" y="119.1" width="10.4">J</text>
</svg>