<svg xmlns="http://www.w3.org/2000/svg" viewBox="0 0 1256.913 128.046">
<desc>Created with https://vsm.github.io/demo</desc>
<style>path{stroke:none}</style>
<path fill="#e5e9fb" d="M0 2.6A2.6 2.6 0 0 1 2.6 0h1190.8a2.6 2.6 0 0 1 2.6 2.6V10H0z"/>
<path fill="#e5e9fb" d="M0 10h198v101H0z"/>
<path fill="#e5e9fb" d="M200 10h21v101h-21z"/>
<path fill="#e5e9fb" d="M223 10h21v34h-21z"/>
<path fill="#e5e9fb" d="M468 10h48v78h-48z"/>
<path fill="#e5e9fb" d="M587 10h48v12h-48z"/>
<path fill="#e5e9fb" d="M1148 10h48v56h-48z"/>
<path fill="#f0f4fb" d="M223 44h21v67h-21z"/>
<path fill="#f0f4fb" d="M468 88h48v23h-48z"/>
<path fill="#f0f4fb" d="M587 22h48v89h-48z"/>
<path fill="#f0f4fb" d="M1148 66h48v45h-48z"/>
<path d="M274 94v1.2h96.2V94z"/>
<path d="M274 94v14.2h1.2V94z"/>
<path d="M327 94v7.81h1.2V94z"/>
<path d="M327.6 100.61l4.29 7.59h-8.58z"/>
<path d="M369 94v13h1.2V94z"/>
<path d="M366.232 101.453l-.964.715 4.332 5.84 4.332-5.84-.963-.715-3.37 4.54z"/>
<path d="M274 72v1.2h179.2V72z"/>
<path d="M274 72v14.2h1.2V72z"/>
<path d="M412 72v29.81h1.2V72z"/>
<path d="M412.6 100.61l4.29 7.59h-8.58z"/>
<path d="M452 72v35h1.2V72z"/>
<path d="M449.232 101.453l-.964.715 4.332 5.84 4.332-5.84-.963-.715-3.37 4.54z"/>
<path d="M233 50v1.2h42.2V50z"/>
<path d="M233 50v58.2h1.2V50z"/>
<path d="M274 50v13h1.2V50z"/>
<path d="M271.232 57.453l-.964.715 4.332 5.84 4.332-5.84-.963-.715-3.37 4.54z"/>
<path fill="#f2f2f2" d="M251.3 55.1v1.2h5.6v-1.2z"/>
<path fill="#eee" d="M253.5 51.2v3.9h1.2v-3.9z"/>
<path fill="#eee" d="M254.1 52.15l1.7 2.95h-3.4z"/>
<path d="M491 94v1.2h84.2V94z"/>
<path d="M491 96.33v1.2h84.2v-1.2z"/>
<path d="M491 94v7.82h1.2V94z"/>
<path d="M488.08 101.82h7.04v6.38h-7.04z"/>
<path d="M528 94v14.2h1.2V94z"/>
<path d="M551 94v14.2h1.2V94z"/>
<path d="M574 94v14.2h1.2V94z"/>
<path d="M647 94v1.2h101.2V94z"/>
<path d="M647 94v14.2h1.2V94z"/>
<path d="M692 94v7.81h1.2V94z"/>
<path d="M692.6 100.61l4.29 7.59h-8.58z"/>
<path d="M747 94v13h1.2V94z"/>
<path d="M744.232 101.453l-.964.715 4.332 5.84 4.332-5.84-.963-.715-3.37 4.54z"/>
<path d="M822 94v1.2h96.2V94z"/>
<path d="M822 94v14.2h1.2V94z"/>
<path d="M877 94v7.81h1.2V94z"/>
<path d="M877.6 100.61l4.29 7.59h-8.58z"/>
<path d="M917 94v13h1.2V94z"/>
<path d="M914.232 101.453l-.964.715 4.332 5.84 4.332-5.84-.963-.715-3.37 4.54z"/>
<path d="M780 72v1.2h43.2V72z"/>
<path d="M780 72v36.2h1.2V72z"/>
<path d="M822 72v13h1.2V72z"/>
<path d="M819.232 79.453l-.964.715 4.332 5.84 4.332-5.84-.963-.715-3.37 4.54z"/>
<path fill="#f2f2f2" d="M798.8 77.1v1.2h5.6v-1.2z"/>
<path fill="#eee" d="M801 73.2v3.9h1.2v-3.9z"/>
<path fill="#eee" d="M801.6 74.15l1.7 2.95h-3.4z"/>
<path d="M780 50v1.2h273.2V50z"/>
<path d="M780 50v14.2h1.2V50z"/>
<path d="M978 50v51.81h1.2V50z"/>
<path d="M978.6 100.61l4.29 7.59h-8.58z"/>
<path d="M1052 50v57h1.2V50z"/>
<path d="M1049.232 101.453l-.964.715 4.332 5.84 4.332-5.84-.963-.715-3.37 4.54z"/>
<path d="M610 28v1.2h171.2V28z"/>
<path d="M610 30.33v1.2h171.2v-1.2z"/>
<path d="M610 28v73.82h1.2V28z"/>
<path d="M607.08 101.82h7.04v6.38h-7.04z"/>
<path d="M647 28v58.2h1.2V28z"/>
<path d="M780 28v14.2h1.2V28z"/>
<path d="M1171 94v1.2h84.2V94z"/>
<path d="M1171 96.33v1.2h84.2v-1.2z"/>
<path d="M1171 94v7.82h1.2V94z"/>
<path d="M1168.08 101.82h7.04v6.38h-7.04z"/>
<path d="M1208 94v14.2h1.2V94z"/>
<path d="M1231 94v14.2h1.2V94z"/>
<path d="M1254 94v14.2h1.2V94z"/>
<path d="M1113 72v1.2h59.2V72z"/>
<path d="M1171 72v14.2h1.2V72z"/>
<path d="M1113 72v35h1.2V72z"/>
<path d="M1110.232 101.453l-.964.715 4.332 5.84 4.332-5.84-.963-.715-3.37 4.54z"/>
<path fill="#f2f2f2" d="M1139.8 77.1v1.2h5.6v-1.2z"/>
<path fill="#eee" d="M1142 73.2v3.9h1.2v-3.9z"/>
<path fill="#eee" d="M1142.6 74.15l1.7 2.95h-3.4z"/>
<path d="M98 6v1.2h1074.2V6z"/>
<path d="M98 8.33v1.2h1074.2v-1.2z"/>
<path d="M98 6v95.82h1.2V6z"/>
<path d="M95.08 101.82h7.04v6.38h-7.04z"/>
<path d="M210 6v102.2h1.2V6z"/>
<path d="M233 6v36.2h1.2V6z"/>
<path d="M491 6v80.2h1.2V6z"/>
<path d="M610 6v14.2h1.2V6z"/>
<path d="M1171 6v58.2h1.2V6z"/>
<path d="M6.554 127.882V117.84h1.121v.944q.397-.554.896-.828.499-.28 1.21-.28.93 0 1.64.479.711.478 1.074 1.353.362.868.362 1.907 0 1.115-.403 2.01-.397.889-1.162 1.367-.76.472-1.6.472-.615 0-1.108-.26-.485-.26-.8-.656v3.534zm1.114-6.37q0 1.4.568 2.07.567.67 1.374.67.82 0 1.401-.69.588-.697.588-2.153 0-1.388-.574-2.079-.567-.69-1.36-.69-.787 0-1.395.738-.602.732-.602 2.133z"/>
<path d="M14.327 125.1v-7.26h1.107v1.1q.424-.772.78-1.018.362-.246.792-.246.622 0 1.265.397l-.424 1.141q-.451-.266-.902-.266-.403 0-.725.246-.321.239-.458.67-.205.656-.205 1.435v3.801z"/>
<path d="M18.544 121.47q0-2.016 1.122-2.987.936-.807 2.283-.807 1.497 0 2.447.985.95.977.95 2.707 0 1.4-.424 2.208-.417.8-1.223 1.244-.8.444-1.75.444-1.525 0-2.468-.977-.937-.978-.937-2.817zm1.265 0q0 1.395.608 2.092.609.69 1.532.69.916 0 1.524-.697.609-.697.609-2.126 0-1.347-.616-2.037-.608-.697-1.517-.697-.923 0-1.532.69-.608.69-.608 2.085z"/>
<path d="M29.475 124l.178 1.086q-.52.11-.93.11-.67 0-1.039-.212-.37-.212-.52-.554-.15-.349-.15-1.456v-4.177h-.902v-.957h.902v-1.798l1.224-.738v2.536h1.237v.957h-1.237v4.245q0 .527.061.677.069.15.212.24.15.088.424.088.205 0 .54-.047z"/>
<path d="M35.648 122.762l1.271.157q-.3 1.115-1.114 1.73-.813.615-2.078.615-1.593 0-2.53-.977-.929-.985-.929-2.755 0-1.832.943-2.844.944-1.012 2.448-1.012 1.456 0 2.379.991.922.992.922 2.79 0 .109-.006.328H31.54q.068 1.196.676 1.832.609.635 1.518.635.677 0 1.155-.355.479-.356.759-1.135zm-4.04-1.99h4.054q-.082-.915-.465-1.373-.588-.711-1.525-.711-.847 0-1.428.567-.575.568-.636 1.518z"/>
<path d="M38.471 116.494v-1.415h1.23v1.415zm0 8.606v-7.26h1.23v7.26z"/>
<path d="M41.575 125.1v-7.26h1.107v1.032q.8-1.196 2.31-1.196.657 0 1.204.24.554.232.827.615.273.382.383.909.068.342.068 1.196v4.464h-1.23v-4.416q0-.752-.144-1.121-.143-.376-.513-.595-.362-.225-.854-.225-.786 0-1.36.499-.568.499-.568 1.893v3.965z"/>
<path d="M57.988 124.204q-.684.582-1.32.82-.628.24-1.353.24-1.196 0-1.839-.581-.643-.588-.643-1.497 0-.533.24-.97.246-.445.635-.712.397-.266.89-.403.361-.096 1.093-.185 1.49-.177 2.194-.423.007-.253.007-.322 0-.752-.349-1.06-.471-.416-1.4-.416-.87 0-1.286.307-.41.301-.609 1.074l-1.203-.164q.164-.773.54-1.245.376-.478 1.087-.731.711-.26 1.648-.26.93 0 1.51.219.582.219.855.554.273.328.383.834.061.314.061 1.134v1.641q0 1.716.076 2.174.082.451.314.868h-1.285q-.192-.383-.246-.896zm-.103-2.748q-.67.274-2.01.465-.758.11-1.073.246-.314.137-.485.404-.171.26-.171.58 0 .493.37.821.375.328 1.093.328.71 0 1.265-.307.553-.315.813-.855.198-.417.198-1.23z"/>
<path d="M60.544 122.933l1.217-.191q.103.731.568 1.12.471.39 1.312.39.848 0 1.258-.341.41-.35.41-.814 0-.417-.362-.656-.253-.164-1.258-.417-1.354-.342-1.88-.588-.52-.253-.793-.69-.266-.445-.266-.978 0-.485.218-.896.226-.417.609-.69.287-.212.779-.355.499-.15 1.066-.15.855 0 1.497.245.65.246.957.67.308.417.424 1.121l-1.203.164q-.082-.56-.478-.875-.39-.314-1.108-.314-.847 0-1.21.28-.362.28-.362.656 0 .24.15.431.15.198.472.328.185.069 1.087.315 1.306.348 1.818.574.52.219.814.642.294.424.294 1.053 0 .615-.363 1.162-.355.54-1.032.841-.677.294-1.531.294-1.415 0-2.16-.588-.738-.588-.944-1.743z"/>
<path d="M67.544 122.933l1.217-.191q.103.731.568 1.12.471.39 1.312.39.848 0 1.258-.341.41-.35.41-.814 0-.417-.362-.656-.253-.164-1.258-.417-1.354-.342-1.88-.588-.52-.253-.793-.69-.266-.445-.266-.978 0-.485.218-.896.226-.417.609-.69.287-.212.779-.355.499-.15 1.066-.15.855 0 1.497.245.65.246.957.67.308.417.424 1.121l-1.203.164q-.082-.56-.478-.875-.39-.314-1.108-.314-.847 0-1.21.28-.362.28-.362.656 0 .24.15.431.15.198.472.328.185.069 1.087.315 1.306.348 1.818.574.52.219.814.642.294.424.294 1.053 0 .615-.363 1.162-.355.54-1.032.841-.677.294-1.531.294-1.415 0-2.16-.588-.738-.588-.944-1.743z"/>
<path d="M80.006 122.762l1.272.157q-.3 1.115-1.114 1.73-.814.615-2.079.615-1.592 0-2.529-.977-.93-.985-.93-2.755 0-1.832.944-2.844.943-1.012 2.447-1.012 1.456 0 2.379.991.923.992.923 2.79 0 .109-.007.328h-5.414q.068 1.196.677 1.832.608.635 1.517.635.677 0 1.156-.355.478-.356.758-1.135zm-4.04-1.99h4.054q-.082-.915-.465-1.373-.588-.711-1.524-.711-.848 0-1.429.567-.574.568-.636 1.518z"/>
<path d="M82.823 125.1v-7.26h1.1v1.019q.342-.533.91-.855.567-.328 1.292-.328.806 0 1.319.335.52.335.731.937.862-1.272 2.242-1.272 1.08 0 1.662.602.58.594.58 1.839v4.983h-1.223v-4.573q0-.739-.123-1.06-.116-.328-.43-.526-.315-.198-.739-.198-.766 0-1.271.512-.506.506-.506 1.627v4.218h-1.23v-4.717q0-.82-.302-1.23-.3-.41-.984-.41-.52 0-.964.273-.437.273-.636.8-.198.526-.198 1.517v3.767z"/>
<path d="M95.62 125.1h-1.142v-10.021h1.23v3.575q.78-.978 1.99-.978.67 0 1.264.274.602.266.985.758.39.486.608 1.176.219.69.219 1.477 0 1.866-.923 2.885-.923 1.018-2.215 1.018-1.285 0-2.016-1.073zm-.014-3.685q0 1.306.355 1.887.581.95 1.573.95.806 0 1.394-.697.588-.704.588-2.092 0-1.422-.567-2.098-.56-.677-1.36-.677-.807 0-1.395.704-.588.697-.588 2.023z"/>
<path d="M102.244 125.1v-10.021h1.23V125.1z"/>
<path d="M105.327 127.896l-.137-1.155q.403.109.704.109.41 0 .656-.137.246-.136.404-.383.116-.184.376-.916.034-.102.109-.3l-2.755-7.274h1.326l1.511 4.204q.294.8.526 1.682.212-.848.506-1.654l1.552-4.232h1.23l-2.761 7.383q-.445 1.196-.69 1.648-.329.608-.753.888-.423.287-1.011.287-.356 0-.793-.15z"/>
<path d="M117.604 128.046q-1.073-2.351-1.073-4.833 0-1.654.43-3.076.438-1.429 1.327-2.823.587-.93 1.88-2.406h.963q-.8.854-1.695 2.406-.889 1.552-1.292 3.049-.403 1.497-.403 3.008 0 2.255.786 4.675z"/>
<path d="M125.486 122.454l1.237.13q-.465 1.36-1.326 2.024-.855.656-1.948.656-1.183 0-1.921-.766-.732-.765-.732-2.14 0-1.189.472-2.337.472-1.149 1.347-1.743.882-.602 2.01-.602 1.168 0 1.852.663.684.657.684 1.743l-1.217.082q-.007-.69-.403-1.08-.39-.39-1.033-.39-.745 0-1.292.472t-.861 1.436q-.308.957-.308 1.846 0 .93.41 1.394.41.465 1.012.465.602 0 1.149-.458.553-.458.868-1.395z"/>
<path d="M127.694 122.345q0-2.126 1.25-3.52 1.033-1.149 2.708-1.149 1.312 0 2.112.82.807.82.807 2.215 0 1.251-.506 2.331-.506 1.074-1.442 1.648-.93.574-1.962.574-.848 0-1.545-.362-.69-.363-1.06-1.026-.362-.663-.362-1.53zm1.237-.123q0 1.025.492 1.559.493.526 1.251.526.397 0 .786-.157.39-.164.725-.492.335-.329.567-.746.24-.423.383-.909.212-.676.212-1.299 0-.984-.499-1.524-.492-.547-1.244-.547-.581 0-1.06.28-.478.274-.868.807-.383.533-.567 1.244-.178.704-.178 1.258z"/>
<path d="M135.254 125.1l1.518-7.26h1.237l-.253 1.197q.69-.773 1.23-1.067.548-.294 1.183-.294.677 0 1.128.362.458.356.602.999.554-.684 1.162-1.019.615-.342 1.292-.342.91 0 1.36.43.458.431.458 1.21 0 .336-.157 1.108l-.977 4.676h-1.238l.998-4.799q.13-.588.13-.84 0-.356-.225-.561-.226-.205-.636-.205-.554 0-1.128.335-.574.335-.896.882-.314.54-.553 1.667l-.739 3.521h-1.237l1.026-4.901q.109-.5.109-.711 0-.356-.226-.575-.218-.218-.574-.218-.526 0-1.107.335-.575.335-.937.936-.362.595-.595 1.702l-.717 3.432z"/>
<path d="M146.315 127.882l2.099-10.042h1.141l-.212 1.012q.636-.663 1.135-.916.506-.26 1.066-.26 1.04 0 1.723.759.684.752.684 2.16 0 1.135-.376 2.071-.376.93-.923 1.497-.547.568-1.108.834-.56.267-1.148.267-1.306 0-2.023-1.326l-.82 3.944zm2.447-5.749q0 .814.116 1.128.171.444.561.718.39.273.902.273 1.067 0 1.723-1.196.656-1.203.656-2.454 0-.923-.444-1.422-.438-.506-1.094-.506-.472 0-.875.253-.403.246-.752.745-.342.492-.567 1.21-.226.718-.226 1.251z"/>
<path d="M154.614 125.1l2.092-10.021h1.237L155.85 125.1z"/>
<path d="M163.152 122.632l1.203.123q-.26.896-1.196 1.702-.93.807-2.222.807-.807 0-1.483-.37-.67-.375-1.026-1.086-.348-.71-.348-1.62 0-1.19.546-2.304.554-1.12 1.43-1.66.874-.548 1.893-.548 1.299 0 2.071.807.78.806.78 2.201 0 .533-.096 1.094h-5.346q-.027.212-.027.383 0 1.018.464 1.558.472.533 1.149.533.636 0 1.25-.417.616-.417.958-1.203zm-3.596-1.798h4.074q.007-.191.007-.273 0-.93-.464-1.422-.465-.499-1.197-.499-.793 0-1.449.547-.65.547-.97 1.647z"/>
<path d="M165.12 125.1l3.159-3.685-1.812-3.575h1.367l.616 1.292q.341.725.615 1.388l2.092-2.68h1.51l-3.048 3.671 1.832 3.589h-1.368l-.724-1.477q-.233-.471-.526-1.169l-2.16 2.646z"/>
<path d="M176.714 122.345q0-2.126 1.251-3.52 1.033-1.149 2.707-1.149 1.313 0 2.113.82.806.82.806 2.215 0 1.251-.506 2.331-.505 1.074-1.442 1.648-.93.574-1.962.574-.848 0-1.545-.362-.69-.363-1.06-1.026-.362-.663-.362-1.53zm1.238-.123q0 1.025.492 1.559.492.526 1.25.526.397 0 .787-.157.39-.164.725-.492.335-.329.567-.746.24-.423.383-.909.212-.676.212-1.299 0-.984-.5-1.524-.492-.547-1.243-.547-.582 0-1.06.28-.479.274-.868.807-.383.533-.568 1.244-.177.704-.177 1.258z"/>
<path d="M184.453 125.1l1.319-6.303h-1.107l.198-.957h1.107l.212-1.032q.164-.772.335-1.114.178-.342.567-.56.397-.226 1.074-.226.471 0 1.367.198l-.226 1.08q-.629-.164-1.052-.164-.363 0-.554.184-.185.178-.321.855l-.164.78h1.38l-.198.956h-1.38l-1.32 6.303z"/>
<path d="M190.482 114.908q1.08 2.351 1.08 4.826 0 1.66-.437 3.083-.431 1.422-1.32 2.823-.595.93-1.88 2.406h-.964q.793-.861 1.689-2.413.895-1.552 1.292-3.042.403-1.497.403-3.014 0-2.256-.786-4.67z"/>
<path d="M205.81 125.1l3.85-10.021h1.428l4.101 10.021h-1.51l-1.17-3.035h-4.19l-1.1 3.035zm2.892-4.115h3.398l-1.046-2.776q-.479-1.264-.711-2.078-.192.964-.54 1.914z"/>
<path d="M229.856 125.1v-10.021h3.76q1.149 0 1.84.307.696.3 1.086.937.396.629.396 1.319 0 .643-.348 1.21-.349.567-1.053.916.91.267 1.395.91.492.642.492 1.517 0 .704-.3 1.312-.295.602-.732.93-.438.328-1.101.499-.656.164-1.613.164zm1.327-5.81h2.167q.881 0 1.264-.117.506-.15.759-.499.26-.348.26-.875 0-.499-.24-.875-.239-.383-.683-.52-.444-.143-1.524-.143h-2.003zm0 4.627h2.495q.642 0 .902-.047.458-.082.766-.274.307-.191.506-.554.198-.369.198-.847 0-.56-.287-.97-.287-.418-.8-.582-.506-.17-1.463-.17h-2.317z"/>
<path d="M252.458 127.882V117.84h1.12v.944q.397-.554.896-.828.5-.28 1.21-.28.93 0 1.64.479.712.478 1.074 1.353.362.868.362 1.907 0 1.115-.403 2.01-.397.889-1.162 1.367-.759.472-1.6.472-.615 0-1.107-.26-.486-.26-.8-.656v3.534zm1.114-6.37q0 1.4.567 2.07.568.67 1.374.67.82 0 1.402-.69.587-.697.587-2.153 0-1.388-.574-2.079-.567-.69-1.36-.69-.786 0-1.395.738-.601.732-.601 2.133z"/>
<path d="M260.244 125.1v-10.021h1.23v3.595q.861-.998 2.174-.998.807 0 1.401.321.595.315.848.875.26.561.26 1.627v4.601h-1.23v-4.6q0-.923-.404-1.34-.397-.424-1.128-.424-.547 0-1.032.287-.479.28-.684.765-.205.486-.205 1.34v3.972z"/>
<path d="M267.572 121.47q0-2.016 1.12-2.987.937-.807 2.284-.807 1.497 0 2.447.985.95.977.95 2.707 0 1.4-.423 2.208-.417.8-1.224 1.244-.8.444-1.75.444-1.524 0-2.468-.977-.936-.978-.936-2.817zm1.264 0q0 1.395.609 2.092.608.69 1.531.69.916 0 1.524-.697.609-.697.609-2.126 0-1.347-.615-2.037-.609-.697-1.518-.697-.923 0-1.531.69-.609.69-.609 2.085z"/>
<path d="M275.324 122.933l1.217-.191q.102.731.567 1.12.472.39 1.312.39.848 0 1.258-.341.41-.35.41-.814 0-.417-.362-.656-.253-.164-1.258-.417-1.353-.342-1.88-.588-.52-.253-.793-.69-.266-.445-.266-.978 0-.485.219-.896.225-.417.608-.69.287-.212.78-.355.498-.15 1.066-.15.854 0 1.497.245.65.246.957.67.307.417.424 1.121l-1.204.164q-.082-.56-.478-.875-.39-.314-1.107-.314-.848 0-1.21.28-.363.28-.363.656 0 .24.15.431.151.198.472.328.185.069 1.087.315 1.306.348 1.819.574.52.219.813.642.294.424.294 1.053 0 .615-.362 1.162-.356.54-1.032.841-.677.294-1.532.294-1.415 0-2.16-.588-.738-.588-.943-1.743z"/>
<path d="M282.816 127.882V117.84h1.121v.944q.396-.554.896-.828.499-.28 1.21-.28.93 0 1.64.479.711.478 1.073 1.353.363.868.363 1.907 0 1.115-.404 2.01-.396.889-1.162 1.367-.759.472-1.6.472-.615 0-1.107-.26-.485-.26-.8-.656v3.534zm1.114-6.37q0 1.4.568 2.07.567.67 1.374.67.82 0 1.4-.69.589-.697.589-2.153 0-1.388-.574-2.079-.568-.69-1.36-.69-.787 0-1.395.738-.602.732-.602 2.133z"/>
<path d="M290.602 125.1v-10.021h1.23v3.595q.862-.998 2.174-.998.807 0 1.402.321.594.315.847.875.26.561.26 1.627v4.601h-1.23v-4.6q0-.923-.404-1.34-.396-.424-1.128-.424-.546 0-1.032.287-.478.28-.683.765-.205.486-.205 1.34v3.972z"/>
<path d="M316.153 124.204q-.683.582-1.319.82-.629.24-1.354.24-1.196 0-1.838-.581-.643-.588-.643-1.497 0-.533.24-.97.245-.445.635-.712.397-.266.889-.403.362-.096 1.093-.185 1.49-.177 2.195-.423.007-.253.007-.322 0-.752-.349-1.06-.472-.416-1.401-.416-.868 0-1.285.307-.41.301-.609 1.074l-1.203-.164q.164-.773.54-1.245.376-.478 1.087-.731.711-.26 1.648-.26.93 0 1.51.219.581.219.855.554.273.328.383.834.061.314.061 1.134v1.641q0 1.716.075 2.174.082.451.315.868H316.4q-.192-.383-.247-.896zm-.102-2.748q-.67.274-2.01.465-.759.11-1.073.246-.315.137-.486.404-.17.26-.17.58 0 .493.369.821.376.328 1.093.328.711 0 1.265-.307.554-.315.814-.855.198-.417.198-1.23z"/>
<path d="M321.889 124l.177 1.086q-.52.11-.93.11-.67 0-1.038-.212-.37-.212-.52-.554-.15-.349-.15-1.456v-4.177h-.903v-.957h.903v-1.798l1.223-.738v2.536h1.238v.957h-1.238v4.245q0 .527.062.677.068.15.212.24.15.088.424.088.205 0 .54-.047z"/>
<path d="M326.968 125.1v-7.26h1.107v1.1q.424-.772.78-1.018.362-.246.792-.246.623 0 1.265.397l-.424 1.141q-.45-.266-.902-.266-.403 0-.725.246-.321.239-.458.67-.205.656-.205 1.435v3.801z"/>
<path d="M336.613 122.762l1.272.157q-.301 1.115-1.114 1.73-.814.615-2.079.615-1.592 0-2.529-.977-.93-.985-.93-2.755 0-1.832.944-2.844.943-1.012 2.447-1.012 1.456 0 2.379.991.923.992.923 2.79 0 .109-.007.328h-5.414q.068 1.196.676 1.832.609.635 1.518.635.677 0 1.155-.355.479-.356.76-1.135zm-4.04-1.99h4.054q-.082-.915-.465-1.373-.588-.711-1.524-.711-.848 0-1.429.567-.574.568-.636 1.518z"/>
<path d="M338.938 122.933l1.216-.191q.103.731.568 1.12.471.39 1.312.39.848 0 1.258-.341.41-.35.41-.814 0-.417-.362-.656-.253-.164-1.258-.417-1.353-.342-1.88-.588-.52-.253-.793-.69-.266-.445-.266-.978 0-.485.218-.896.226-.417.609-.69.287-.212.779-.355.5-.15 1.066-.15.855 0 1.498.245.649.246.957.67.307.417.423 1.121l-1.203.164q-.082-.56-.478-.875-.39-.314-1.108-.314-.847 0-1.21.28-.362.28-.362.656 0 .24.15.431.15.198.472.328.185.069 1.087.315 1.306.348 1.818.574.52.219.814.642.294.424.294 1.053 0 .615-.363 1.162-.355.54-1.032.841-.676.294-1.531.294-1.415 0-2.16-.588-.738-.588-.943-1.743z"/>
<path d="M359.236 121.88l1.25-.11q.09.753.411 1.238.328.479 1.012.78.683.293 1.538.293.759 0 1.34-.225.58-.226.861-.615.287-.397.287-.862 0-.471-.273-.82-.274-.355-.903-.595-.403-.157-1.784-.485-1.38-.335-1.934-.629-.718-.376-1.074-.93-.348-.56-.348-1.25 0-.76.43-1.416.431-.663 1.258-1.005.827-.341 1.839-.341 1.114 0 1.962.362.854.355 1.312 1.053.458.697.493 1.579l-1.272.095q-.102-.95-.697-1.435-.588-.485-1.743-.485-1.203 0-1.757.444-.547.437-.547 1.06 0 .54.39.888.382.349 1.996.718 1.62.362 2.221.636.875.403 1.292 1.025.417.615.417 1.422 0 .8-.458 1.51-.458.705-1.319 1.101-.854.39-1.928.39-1.36 0-2.283-.397-.916-.396-1.442-1.189-.52-.8-.547-1.805z"/>
<path d="M373.837 122.762l1.272.157q-.3 1.115-1.114 1.73-.814.615-2.079.615-1.592 0-2.529-.977-.93-.985-.93-2.755 0-1.832.944-2.844.943-1.012 2.447-1.012 1.456 0 2.379.991.923.992.923 2.79 0 .109-.007.328h-5.414q.068 1.196.677 1.832.608.635 1.517.635.677 0 1.156-.355.478-.356.758-1.135zm-4.04-1.99h4.054q-.082-.915-.465-1.373-.588-.711-1.524-.711-.848 0-1.429.567-.574.568-.636 1.518z"/>
<path d="M376.64 125.1v-7.26h1.108v1.1q.423-.772.779-1.018.362-.246.793-.246.622 0 1.264.397l-.423 1.141q-.452-.266-.903-.266-.403 0-.724.246-.322.239-.458.67-.205.656-.205 1.435v3.801z"/>
<path d="M399.091 124.204q-.683.582-1.319.82-.629.24-1.354.24-1.196 0-1.838-.581-.643-.588-.643-1.497 0-.533.24-.97.245-.445.635-.712.396-.266.889-.403.362-.096 1.093-.185 1.49-.177 2.195-.423.007-.253.007-.322 0-.752-.349-1.06-.472-.416-1.401-.416-.868 0-1.285.307-.41.301-.609 1.074l-1.203-.164q.164-.773.54-1.245.376-.478 1.087-.731.711-.26 1.647-.26.93 0 1.511.219.581.219.855.554.273.328.383.834.061.314.061 1.134v1.641q0 1.716.075 2.174.082.451.315.868h-1.285q-.192-.383-.247-.896zm-.102-2.748q-.67.274-2.01.465-.759.11-1.073.246-.315.137-.486.404-.17.26-.17.58 0 .493.369.821.376.328 1.093.328.711 0 1.265-.307.554-.315.814-.855.198-.417.198-1.23z"/>
<path d="M404.827 124l.177 1.086q-.52.11-.93.11-.67 0-1.038-.212-.37-.212-.52-.554-.15-.349-.15-1.456v-4.177h-.903v-.957h.903v-1.798l1.223-.738v2.536h1.238v.957h-1.238v4.245q0 .527.062.677.068.15.212.24.15.088.424.088.205 0 .54-.047z"/>
<path d="M409.92 127.882V117.84h1.12v.944q.397-.554.896-.828.5-.28 1.21-.28.93 0 1.64.479.712.478 1.074 1.353.362.868.362 1.907 0 1.115-.403 2.01-.397.889-1.162 1.367-.759.472-1.6.472-.615 0-1.107-.26-.486-.26-.8-.656v3.534zm1.114-6.37q0 1.4.567 2.07.567.67 1.374.67.82 0 1.401-.69.588-.697.588-2.153 0-1.388-.574-2.079-.567-.69-1.36-.69-.786 0-1.395.738-.601.732-.601 2.133z"/>
<path d="M417.248 121.47q0-2.016 1.12-2.987.937-.807 2.284-.807 1.497 0 2.447.985.95.977.95 2.707 0 1.4-.424 2.208-.417.8-1.223 1.244-.8.444-1.75.444-1.525 0-2.468-.977-.936-.978-.936-2.817zm1.264 0q0 1.395.609 2.092.608.69 1.53.69.917 0 1.525-.697.609-.697.609-2.126 0-1.347-.616-2.037-.608-.697-1.517-.697-.923 0-1.531.69-.609.69-.609 2.085z"/>
<path d="M425 122.933l1.216-.191q.103.731.568 1.12.471.39 1.312.39.848 0 1.258-.341.41-.35.41-.814 0-.417-.362-.656-.253-.164-1.258-.417-1.353-.342-1.88-.588-.52-.253-.793-.69-.266-.445-.266-.978 0-.485.218-.896.226-.417.609-.69.287-.212.779-.355.5-.15 1.066-.15.855 0 1.498.245.649.246.957.67.307.417.423 1.121l-1.203.164q-.082-.56-.478-.875-.39-.314-1.108-.314-.847 0-1.21.28-.362.28-.362.656 0 .24.15.431.15.198.472.328.185.069 1.087.315 1.306.348 1.818.574.52.219.814.642.294.424.294 1.053 0 .615-.363 1.162-.355.54-1.032.841-.676.294-1.531.294-1.415 0-2.16-.588-.738-.588-.943-1.743z"/>
<path d="M451.762 123.917v1.183h-6.624q-.014-.444.143-.854.253-.677.807-1.333.56-.657 1.613-1.518 1.634-1.34 2.208-2.12.574-.785.574-1.483 0-.731-.526-1.23-.52-.506-1.36-.506-.889 0-1.422.533-.533.533-.54 1.477l-1.265-.13q.13-1.415.978-2.153.847-.745 2.276-.745 1.442 0 2.283.8t.841 1.982q0 .601-.246 1.182t-.82 1.224q-.568.643-1.894 1.764-1.107.93-1.422 1.264-.314.328-.52.663z"/>
<path d="M453.081 120.158q0-1.778.362-2.858.37-1.087 1.087-1.675.725-.588 1.819-.588.806 0 1.415.329.608.32 1.005.936.396.609.622 1.49.225.875.225 2.366 0 1.763-.362 2.85-.362 1.08-1.087 1.675-.718.588-1.818.588-1.45 0-2.277-1.04-.991-1.25-.991-4.073zm1.265 0q0 2.467.574 3.288.581.813 1.429.813.847 0 1.422-.82.58-.82.58-3.281 0-2.475-.58-3.288-.575-.814-1.436-.814-.848 0-1.354.718-.635.916-.635 3.384z"/>
<path d="M479.38 122.44l1.21.158q-.197 1.251-1.018 1.962-.813.704-2.003.704-1.49 0-2.4-.97-.901-.978-.901-2.797 0-1.175.39-2.057.389-.882 1.182-1.32.8-.444 1.736-.444 1.183 0 1.935.602.752.594.964 1.695l-1.197.185q-.17-.732-.608-1.101-.43-.37-1.046-.37-.93 0-1.51.67-.582.664-.582 2.106 0 1.463.56 2.126.561.663 1.464.663.724 0 1.21-.444.485-.444.615-1.367z"/>
<path d="M481.644 125.1v-7.26h1.1v1.019q.342-.533.91-.855.567-.328 1.291-.328.807 0 1.32.335.52.335.731.937.861-1.272 2.242-1.272 1.08 0 1.661.602.581.594.581 1.839v4.983h-1.223v-4.573q0-.739-.123-1.06-.116-.328-.43-.526-.315-.198-.74-.198-.765 0-1.27.512-.506.506-.506 1.627v4.218h-1.231v-4.717q0-.82-.3-1.23-.302-.41-.985-.41-.52 0-.964.273-.437.273-.636.8-.198.526-.198 1.517v3.767z"/>
<path d="M493.306 127.882V117.84h1.12v.944q.397-.554.896-.828.5-.28 1.21-.28.93 0 1.64.479.712.478 1.074 1.353.362.868.362 1.907 0 1.115-.403 2.01-.396.889-1.162 1.367-.759.472-1.6.472-.615 0-1.107-.26-.485-.26-.8-.656v3.534zm1.114-6.37q0 1.4.567 2.07.568.67 1.374.67.82 0 1.402-.69.588-.697.588-2.153 0-1.388-.575-2.079-.567-.69-1.36-.69-.786 0-1.395.738-.601.732-.601 2.133z"/>
<path d="M501.064 125.1v-10.021h1.23V125.1z"/>
<path d="M503.382 125.1l2.652-3.773-2.454-3.487h1.538l1.114 1.702q.315.486.506.814.301-.451.554-.8l1.224-1.716h1.47l-2.51 3.418 2.7 3.842h-1.51l-1.49-2.256-.397-.608-1.907 2.864z"/>
<path d="M531.675 121.586l1.326.335q-.417 1.634-1.503 2.495-1.08.855-2.646.855-1.62 0-2.639-.656-1.011-.663-1.545-1.914-.526-1.251-.526-2.687 0-1.565.595-2.727.601-1.17 1.702-1.771 1.107-.608 2.434-.608 1.503 0 2.529.765 1.025.766 1.429 2.154l-1.306.307q-.349-1.094-1.012-1.593-.663-.499-1.668-.499-1.155 0-1.934.554-.773.554-1.087 1.49-.315.93-.315 1.921 0 1.279.37 2.236.375.95 1.162 1.421.786.472 1.702.472 1.114 0 1.886-.642.773-.643 1.046-1.908z"/>
<path d="M547.525 125.1v-10.021h3.452q1.169 0 1.784.143.862.198 1.47.718.793.67 1.183 1.716.396 1.039.396 2.379 0 1.141-.267 2.023-.266.882-.683 1.463-.417.574-.916.91-.492.327-1.196.498-.698.171-1.607.171zm1.326-1.183h2.14q.99 0 1.551-.184.568-.185.903-.52.471-.471.731-1.264.267-.8.267-1.935 0-1.572-.52-2.413-.512-.848-1.25-1.135-.534-.205-1.716-.205h-2.106z"/>
<path d="M570.938 125.1v-10.021h7.247v1.182h-5.92v3.07h5.544v1.175h-5.544v3.411h6.152v1.183z"/>
<path d="M598.38 122.44l1.21.158q-.197 1.251-1.018 1.962-.813.704-2.003.704-1.49 0-2.4-.97-.901-.978-.901-2.797 0-1.175.39-2.057.389-.882 1.182-1.32.8-.444 1.736-.444 1.183 0 1.935.602.752.594.964 1.695l-1.197.185q-.17-.732-.608-1.101-.43-.37-1.046-.37-.93 0-1.51.67-.582.664-.582 2.106 0 1.463.56 2.126.561.663 1.464.663.724 0 1.21-.444.485-.444.615-1.367z"/>
<path d="M600.644 125.1v-7.26h1.1v1.019q.342-.533.91-.855.567-.328 1.291-.328.807 0 1.32.335.52.335.731.937.861-1.272 2.242-1.272 1.08 0 1.661.602.581.594.581 1.839v4.983h-1.223v-4.573q0-.739-.123-1.06-.116-.328-.43-.526-.315-.198-.74-.198-.765 0-1.27.512-.506.506-.506 1.627v4.218h-1.231v-4.717q0-.82-.3-1.23-.302-.41-.985-.41-.52 0-.964.273-.437.273-.636.8-.198.526-.198 1.517v3.767z"/>
<path d="M612.306 127.882V117.84h1.12v.944q.397-.554.896-.828.5-.28 1.21-.28.93 0 1.64.479.712.478 1.074 1.353.362.868.362 1.907 0 1.115-.403 2.01-.396.889-1.162 1.367-.759.472-1.6.472-.615 0-1.107-.26-.485-.26-.8-.656v3.534zm1.114-6.37q0 1.4.567 2.07.568.67 1.374.67.82 0 1.402-.69.588-.697.588-2.153 0-1.388-.575-2.079-.567-.69-1.36-.69-.786 0-1.395.738-.601.732-.601 2.133z"/>
<path d="M620.064 125.1v-10.021h1.23V125.1z"/>
<path d="M622.382 125.1l2.652-3.773-2.454-3.487h1.538l1.114 1.702q.315.486.506.814.301-.451.554-.8l1.224-1.716h1.47l-2.51 3.418 2.7 3.842h-1.51l-1.49-2.256-.397-.608-1.907 2.864z"/>
<path d="M644.373 125.1v-10.021h6.76v1.182H645.7v3.104h4.703v1.182H645.7v4.553z"/>
<path d="M667.81 125.1h-1.142v-10.021h1.23v3.575q.78-.978 1.99-.978.67 0 1.264.274.602.266.985.758.39.486.608 1.176.219.69.219 1.477 0 1.866-.923 2.885-.923 1.018-2.215 1.018-1.285 0-2.016-1.073zm-.014-3.685q0 1.306.355 1.887.581.95 1.573.95.806 0 1.394-.697.588-.704.588-2.092 0-1.422-.567-2.098-.56-.677-1.36-.677-.807 0-1.395.704-.588.697-.588 2.023z"/>
<path d="M674.003 121.47q0-2.016 1.121-2.987.937-.807 2.283-.807 1.497 0 2.447.985.95.977.95 2.707 0 1.4-.423 2.208-.417.8-1.224 1.244-.8.444-1.75.444-1.524 0-2.468-.977-.936-.978-.936-2.817zm1.265 0q0 1.395.608 2.092.608.69 1.531.69.916 0 1.525-.697.608-.697.608-2.126 0-1.347-.615-2.037-.609-.697-1.518-.697-.923 0-1.531.69-.608.69-.608 2.085z"/>
<path d="M687.005 125.1v-1.066q-.848 1.23-2.304 1.23-.642 0-1.203-.246-.554-.246-.827-.615-.267-.376-.376-.916-.075-.363-.075-1.149v-4.498h1.23v4.027q0 .963.075 1.298.117.486.493.766.376.273.93.273.553 0 1.038-.28.486-.287.684-.772.205-.492.205-1.422v-3.89h1.23v7.26z"/>
<path d="M690.033 125.1v-7.26h1.108v1.032q.8-1.196 2.31-1.196.656 0 1.203.24.554.232.827.615.274.382.383.909.069.342.069 1.196v4.464h-1.23v-4.416q0-.752-.144-1.121-.144-.376-.513-.595-.362-.225-.855-.225-.786 0-1.36.499-.567.499-.567 1.893v3.965z"/>
<path d="M702.53 125.1v-.916q-.691 1.08-2.031 1.08-.868 0-1.6-.478-.724-.479-1.128-1.333-.396-.862-.396-1.976 0-1.087.362-1.969.363-.888 1.087-1.36.725-.472 1.62-.472.657 0 1.17.28.512.274.833.718v-3.595h1.224V125.1zm-3.89-3.623q0 1.394.588 2.085.587.69 1.387.69.807 0 1.367-.656.568-.663.568-2.017 0-1.49-.574-2.187-.575-.697-1.415-.697-.82 0-1.374.67-.547.67-.547 2.112z"/>
<path d="M712.182 124l.177 1.086q-.52.11-.93.11-.67 0-1.038-.212-.37-.212-.52-.554-.15-.349-.15-1.456v-4.177h-.903v-.957h.903v-1.798l1.223-.738v2.536h1.238v.957h-1.238v4.245q0 .527.062.677.068.15.212.24.15.088.424.088.205 0 .54-.047z"/>
<path d="M712.927 121.47q0-2.016 1.12-2.987.937-.807 2.284-.807 1.497 0 2.447.985.95.977.95 2.707 0 1.4-.423 2.208-.417.8-1.224 1.244-.8.444-1.75.444-1.524 0-2.468-.977-.936-.978-.936-2.817zm1.264 0q0 1.395.609 2.092.608.69 1.531.69.916 0 1.524-.697.609-.697.609-2.126 0-1.347-.615-2.037-.609-.697-1.518-.697-.923 0-1.531.69-.609.69-.609 2.085z"/>
<path d="M741.81 121.586l1.326.335q-.417 1.634-1.504 2.495-1.08.855-2.646.855-1.62 0-2.638-.656-1.012-.663-1.545-1.914-.527-1.251-.527-2.687 0-1.565.595-2.727.602-1.17 1.702-1.771 1.108-.608 2.434-.608 1.504 0 2.53.765 1.025.766 1.428 2.154l-1.306.307q-.348-1.094-1.012-1.593-.663-.499-1.668-.499-1.155 0-1.934.554-.773.554-1.087 1.49-.314.93-.314 1.921 0 1.279.369 2.236.376.95 1.162 1.421.786.472 1.702.472 1.114 0 1.887-.642.772-.643 1.046-1.908z"/>
<path d="M749.35 124.204q-.684.582-1.32.82-.629.24-1.353.24-1.197 0-1.84-.581-.642-.588-.642-1.497 0-.533.24-.97.246-.445.635-.712.397-.266.889-.403.362-.096 1.094-.185 1.49-.177 2.194-.423.007-.253.007-.322 0-.752-.349-1.06-.471-.416-1.4-.416-.87 0-1.286.307-.41.301-.608 1.074l-1.204-.164q.164-.773.54-1.245.376-.478 1.087-.731.711-.26 1.648-.26.93 0 1.51.219.582.219.855.554.273.328.383.834.061.314.061 1.134v1.641q0 1.716.076 2.174.082.451.314.868h-1.285q-.192-.383-.246-.896zm-.103-2.748q-.67.274-2.01.465-.758.11-1.073.246-.314.137-.485.404-.171.26-.171.58 0 .493.369.821.376.328 1.094.328.71 0 1.264-.307.554-.315.814-.855.198-.417.198-1.23z"/>
<path d="M756.308 121.49v.81h-4.542q-.009-.305.099-.586.173-.464.553-.914.384-.45 1.106-1.04 1.12-.92 1.514-1.454.394-.539.394-1.017 0-.501-.361-.844-.356-.347-.933-.347-.61 0-.975.366-.366.366-.37 1.013l-.867-.09q.089-.97.67-1.476.581-.511 1.56-.511.99 0 1.566.548.577.549.577 1.36 0 .412-.169.81-.169.4-.562.84-.39.44-1.299 1.21-.76.637-.975.866-.215.225-.356.455z"/>
<path d="M759.22 121.19v-1.885h-1.871v-.788h1.87v-1.87h.797v1.87h1.87v.788h-1.87v1.884z"/>
<path d="M781.325 121.17v-1.176l4.245-.007v3.718q-.978.78-2.017 1.176-1.039.39-2.133.39-1.476 0-2.686-.63-1.203-.635-1.818-1.831-.616-1.197-.616-2.673 0-1.463.609-2.728.615-1.271 1.763-1.886 1.149-.616 2.646-.616 1.087 0 1.962.356.882.349 1.38.977.5.63.76 1.641l-1.197.328q-.225-.765-.56-1.203-.335-.437-.957-.697-.623-.267-1.381-.267-.91 0-1.573.28-.663.274-1.073.725-.403.451-.629.991-.383.93-.383 2.017 0 1.34.458 2.242.465.902 1.347 1.34.882.437 1.873.437.862 0 1.682-.328.82-.335 1.244-.71v-1.867z"/>
<path d="M800.458 127.882V117.84h1.12v.944q.397-.554.896-.828.5-.28 1.21-.28.93 0 1.64.479.712.478 1.074 1.353.362.868.362 1.907 0 1.115-.403 2.01-.397.889-1.162 1.367-.759.472-1.6.472-.615 0-1.107-.26-.486-.26-.8-.656v3.534zm1.114-6.37q0 1.4.567 2.07.568.67 1.374.67.82 0 1.402-.69.587-.697.587-2.153 0-1.388-.574-2.079-.567-.69-1.36-.69-.786 0-1.395.738-.601.732-.601 2.133z"/>
<path d="M808.244 125.1v-10.021h1.23v3.595q.861-.998 2.174-.998.807 0 1.401.321.595.315.848.875.26.561.26 1.627v4.601h-1.23v-4.6q0-.923-.404-1.34-.397-.424-1.128-.424-.547 0-1.032.287-.479.28-.684.765-.205.486-.205 1.34v3.972z"/>
<path d="M815.572 121.47q0-2.016 1.12-2.987.937-.807 2.284-.807 1.497 0 2.447.985.95.977.95 2.707 0 1.4-.423 2.208-.417.8-1.224 1.244-.8.444-1.75.444-1.524 0-2.468-.977-.936-.978-.936-2.817zm1.264 0q0 1.395.609 2.092.608.69 1.531.69.916 0 1.524-.697.609-.697.609-2.126 0-1.347-.615-2.037-.609-.697-1.518-.697-.923 0-1.531.69-.609.69-.609 2.085z"/>
<path d="M823.324 122.933l1.217-.191q.102.731.567 1.12.472.39 1.312.39.848 0 1.258-.341.41-.35.41-.814 0-.417-.362-.656-.253-.164-1.258-.417-1.353-.342-1.88-.588-.52-.253-.793-.69-.266-.445-.266-.978 0-.485.219-.896.225-.417.608-.69.287-.212.78-.355.498-.15 1.066-.15.854 0 1.497.245.65.246.957.67.307.417.424 1.121l-1.204.164q-.082-.56-.478-.875-.39-.314-1.107-.314-.848 0-1.21.28-.363.28-.363.656 0 .24.15.431.151.198.472.328.185.069 1.087.315 1.306.348 1.819.574.52.219.813.642.294.424.294 1.053 0 .615-.362 1.162-.356.54-1.033.841-.676.294-1.53.294-1.416 0-2.16-.588-.74-.588-.944-1.743z"/>
<path d="M830.816 127.882V117.84h1.121v.944q.396-.554.896-.828.499-.28 1.21-.28.93 0 1.64.479.711.478 1.073 1.353.363.868.363 1.907 0 1.115-.404 2.01-.396.889-1.162 1.367-.759.472-1.6.472-.615 0-1.107-.26-.485-.26-.8-.656v3.534zm1.114-6.37q0 1.4.568 2.07.567.67 1.374.67.82 0 1.4-.69.589-.697.589-2.153 0-1.388-.574-2.079-.568-.69-1.36-.69-.787 0-1.395.738-.602.732-.602 2.133z"/>
<path d="M838.602 125.1v-10.021h1.23v3.595q.862-.998 2.174-.998.807 0 1.402.321.594.315.847.875.26.561.26 1.627v4.601h-1.23v-4.6q0-.923-.404-1.34-.396-.424-1.128-.424-.546 0-1.032.287-.478.28-.683.765-.205.486-.205 1.34v3.972z"/>
<path d="M864.091 124.204q-.683.582-1.319.82-.629.24-1.354.24-1.196 0-1.838-.581-.643-.588-.643-1.497 0-.533.24-.97.245-.445.635-.712.396-.266.889-.403.362-.096 1.093-.185 1.49-.177 2.195-.423.007-.253.007-.322 0-.752-.349-1.06-.472-.416-1.401-.416-.868 0-1.285.307-.41.301-.609 1.074l-1.203-.164q.164-.773.54-1.245.376-.478 1.087-.731.711-.26 1.648-.26.93 0 1.51.219.581.219.855.554.273.328.383.834.061.314.061 1.134v1.641q0 1.716.075 2.174.082.451.315.868h-1.285q-.192-.383-.247-.896zm-.102-2.748q-.67.274-2.01.465-.759.11-1.073.246-.315.137-.486.404-.17.26-.17.58 0 .493.369.821.376.328 1.093.328.711 0 1.265-.307.554-.315.814-.855.198-.417.198-1.23z"/>
<path d="M869.827 124l.177 1.086q-.52.11-.93.11-.67 0-1.038-.212-.37-.212-.52-.554-.15-.349-.15-1.456v-4.177h-.903v-.957h.903v-1.798l1.223-.738v2.536h1.238v.957h-1.238v4.245q0 .527.062.677.068.15.212.24.15.088.424.088.205 0 .54-.047z"/>
<path d="M874.92 127.882V117.84h1.12v.944q.397-.554.896-.828.5-.28 1.21-.28.93 0 1.64.479.712.478 1.074 1.353.362.868.362 1.907 0 1.115-.403 2.01-.397.889-1.162 1.367-.76.472-1.6.472-.615 0-1.107-.26-.486-.26-.8-.656v3.534zm1.114-6.37q0 1.4.567 2.07.567.67 1.374.67.82 0 1.401-.69.588-.697.588-2.153 0-1.388-.574-2.079-.567-.69-1.36-.69-.786 0-1.395.738-.601.732-.601 2.133z"/>
<path d="M882.248 121.47q0-2.016 1.12-2.987.937-.807 2.284-.807 1.497 0 2.447.985.95.977.95 2.707 0 1.4-.424 2.208-.416.8-1.223 1.244-.8.444-1.75.444-1.525 0-2.468-.977-.936-.978-.936-2.817zm1.264 0q0 1.395.609 2.092.608.69 1.53.69.917 0 1.525-.697.609-.697.609-2.126 0-1.347-.616-2.037-.608-.697-1.517-.697-.923 0-1.531.69-.609.69-.609 2.085z"/>
<path d="M890 122.933l1.216-.191q.103.731.568 1.12.471.39 1.312.39.848 0 1.258-.341.41-.35.41-.814 0-.417-.362-.656-.253-.164-1.258-.417-1.353-.342-1.88-.588-.52-.253-.793-.69-.266-.445-.266-.978 0-.485.218-.896.226-.417.609-.69.287-.212.779-.355.5-.15 1.066-.15.855 0 1.498.245.649.246.957.67.307.417.423 1.121l-1.203.164q-.082-.56-.478-.875-.39-.314-1.108-.314-.847 0-1.21.28-.362.28-.362.656 0 .24.15.431.15.198.472.328.185.069 1.087.315 1.306.348 1.818.574.52.219.814.642.294.424.294 1.053 0 .615-.363 1.162-.355.54-1.032.841-.676.294-1.531.294-1.415 0-2.16-.588-.738-.588-.943-1.743z"/>
<path d="M916.762 123.917v1.183h-6.624q-.014-.444.143-.854.253-.677.807-1.333.56-.657 1.613-1.518 1.634-1.34 2.208-2.12.574-.785.574-1.483 0-.731-.526-1.23-.52-.506-1.36-.506-.889 0-1.422.533-.533.533-.54 1.477l-1.265-.13q.13-1.415.978-2.153.847-.745 2.276-.745 1.442 0 2.283.8t.841 1.982q0 .601-.246 1.182t-.82 1.224q-.568.643-1.894 1.764-1.107.93-1.422 1.264-.314.328-.52.663z"/>
<path d="M918.081 122.475l1.292-.11q.144.944.663 1.422.527.472 1.265.472.888 0 1.504-.67.615-.67.615-1.777 0-1.053-.595-1.661-.588-.609-1.545-.609-.594 0-1.073.274-.478.266-.752.697l-1.155-.15.97-5.148h4.984v1.176h-4l-.54 2.693q.903-.629 1.894-.629 1.313 0 2.215.91.903.909.903 2.338 0 1.36-.793 2.351-.964 1.217-2.632 1.217-1.367 0-2.236-.766-.86-.765-.984-2.03z"/>
<path d="M940.038 125.1v-6.303h-1.087v-.957h1.087v-.772q0-.732.13-1.087.177-.479.622-.773.45-.3 1.257-.3.52 0 1.149.123l-.185 1.073q-.383-.068-.724-.068-.56 0-.793.239-.233.24-.233.895v.67h1.415v.957h-1.415v6.303z"/>
<path d="M943.62 125.1v-7.26h1.107v1.1q.424-.772.78-1.018.362-.246.792-.246.622 0 1.265.397l-.424 1.141q-.451-.266-.902-.266-.404 0-.725.246-.321.239-.458.67-.205.656-.205 1.435v3.801z"/>
<path d="M947.837 121.47q0-2.016 1.122-2.987.936-.807 2.283-.807 1.497 0 2.447.985.95.977.95 2.707 0 1.4-.424 2.208-.417.8-1.223 1.244-.8.444-1.75.444-1.525 0-2.468-.977-.937-.978-.937-2.817zm1.265 0q0 1.395.608 2.092.609.69 1.532.69.916 0 1.524-.697.609-.697.609-2.126 0-1.347-.616-2.037-.608-.697-1.517-.697-.923 0-1.532.69-.608.69-.608 2.085z"/>
<path d="M956.082 125.1v-7.26h1.1v1.019q.342-.533.91-.855.567-.328 1.291-.328.807 0 1.32.335.52.335.731.937.861-1.272 2.242-1.272 1.08 0 1.661.602.581.594.581 1.839v4.983h-1.223v-4.573q0-.739-.123-1.06-.116-.328-.43-.526-.315-.198-.74-.198-.765 0-1.27.512-.507.506-.507 1.627v4.218h-1.23v-4.717q0-.82-.3-1.23-.302-.41-.985-.41-.52 0-.964.273-.437.273-.636.8-.198.526-.198 1.517v3.767z"/>
<path d="M971.141 122.933l1.217-.191q.102.731.567 1.12.472.39 1.313.39.847 0 1.258-.341.41-.35.41-.814 0-.417-.363-.656-.252-.164-1.257-.417-1.354-.342-1.88-.588-.52-.253-.793-.69-.267-.445-.267-.978 0-.485.219-.896.226-.417.608-.69.287-.212.78-.355.499-.15 1.066-.15.855 0 1.497.245.65.246.957.67.308.417.424 1.121l-1.203.164q-.082-.56-.479-.875-.39-.314-1.107-.314-.848 0-1.21.28t-.362.656q0 .24.15.431.15.198.472.328.184.069 1.087.315 1.305.348 1.818.574.52.219.813.642.294.424.294 1.053 0 .615-.362 1.162-.355.54-1.032.841-.677.294-1.531.294-1.415 0-2.16-.588-.739-.588-.944-1.743z"/>
<path d="M978.633 127.882V117.84h1.121v.944q.397-.554.896-.828.499-.28 1.21-.28.93 0 1.64.479.711.478 1.074 1.353.362.868.362 1.907 0 1.115-.403 2.01-.397.889-1.162 1.367-.76.472-1.6.472-.615 0-1.107-.26-.486-.26-.8-.656v3.534zm1.115-6.37q0 1.4.567 2.07.567.67 1.374.67.82 0 1.401-.69.588-.697.588-2.153 0-1.388-.574-2.079-.567-.69-1.36-.69-.786 0-1.395.738-.601.732-.601 2.133z"/>
<path d="M991.39 122.762l1.27.157q-.3 1.115-1.114 1.73-.813.615-2.078.615-1.593 0-2.529-.977-.93-.985-.93-2.755 0-1.832.944-2.844.943-1.012 2.447-1.012 1.456 0 2.379.991.923.992.923 2.79 0 .109-.007.328h-5.414q.068 1.196.676 1.832.609.635 1.518.635.677 0 1.155-.355.479-.356.759-1.135zm-4.04-1.99h4.053q-.082-.915-.465-1.373-.588-.711-1.524-.711-.848 0-1.43.567-.573.568-.635 1.518z"/>
<path d="M998.943 122.44l1.21.158q-.198 1.251-1.019 1.962-.813.704-2.003.704-1.49 0-2.4-.97-.901-.978-.901-2.797 0-1.175.39-2.057.389-.882 1.182-1.32.8-.444 1.736-.444 1.183 0 1.935.602.752.594.964 1.695l-1.197.185q-.17-.732-.608-1.101-.43-.37-1.046-.37-.93 0-1.51.67-.582.664-.582 2.106 0 1.463.56 2.126.561.663 1.464.663.724 0 1.21-.444.485-.444.615-1.367z"/>
<path d="M1001.212 116.494v-1.415h1.23v1.415zm0 8.606v-7.26h1.23v7.26z"/>
<path d="M1009.286 122.762l1.271.157q-.3 1.115-1.114 1.73-.814.615-2.078.615-1.593 0-2.53-.977-.93-.985-.93-2.755 0-1.832.944-2.844.943-1.012 2.447-1.012 1.456 0 2.38.991.922.992.922 2.79 0 .109-.01.328h-5.414q.068 1.196.677 1.832.608.635 1.517.635.677 0 1.156-.355.478-.356.758-1.135zm-4.04-1.99h4.053q-.082-.915-.464-1.373-.588-.711-1.525-.711-.848 0-1.429.567-.574.568-.635 1.518z"/>
<path d="M1011.61 122.933l1.217-.191q.102.731.567 1.12.472.39 1.313.39.847 0 1.257-.341.41-.35.41-.814 0-.417-.362-.656-.253-.164-1.258-.417-1.353-.342-1.88-.588-.519-.253-.792-.69-.267-.445-.267-.978 0-.485.219-.896.225-.417.608-.69.287-.212.78-.355.498-.15 1.066-.15.854 0 1.497.245.65.246.957.67.308.417.424 1.121l-1.203.164q-.082-.56-.479-.875-.39-.314-1.107-.314-.848 0-1.21.28-.363.28-.363.656 0 .24.15.431.151.198.473.328.184.069 1.086.315 1.306.348 1.819.574.52.219.813.642.294.424.294 1.053 0 .615-.362 1.162-.356.54-1.032.841-.677.294-1.532.294-1.415 0-2.16-.588-.738-.588-.943-1.743z"/>
<path d="M1032.529 125.1v-10.021h1.996l2.372 7.095q.328.991.479 1.484.17-.547.533-1.607l2.4-6.972h1.783V125.1h-1.278v-8.388l-2.912 8.388h-1.196l-2.899-8.531v8.531z"/>
<path d="M1043.617 121.47q0-2.016 1.12-2.987.937-.807 2.284-.807 1.497 0 2.447.985.95.977.95 2.707 0 1.4-.423 2.208-.417.8-1.224 1.244-.8.444-1.75.444-1.524 0-2.468-.977-.936-.978-.936-2.817zm1.264 0q0 1.395.609 2.092.608.69 1.531.69.916 0 1.524-.697.609-.697.609-2.126 0-1.347-.615-2.037-.609-.697-1.518-.697-.923 0-1.531.69-.609.69-.609 2.085z"/>
<path d="M1056.619 125.1v-1.066q-.848 1.23-2.304 1.23-.643 0-1.203-.246-.554-.246-.827-.615-.267-.376-.376-.916-.075-.363-.075-1.149v-4.498h1.23v4.027q0 .963.075 1.298.116.486.492.766.376.273.93.273t1.04-.28q.484-.287.683-.772.205-.492.205-1.422v-3.89h1.23v7.26z"/>
<path d="M1059.155 122.933l1.217-.191q.102.731.567 1.12.472.39 1.312.39.848 0 1.258-.341.41-.35.41-.814 0-.417-.362-.656-.253-.164-1.258-.417-1.353-.342-1.88-.588-.52-.253-.793-.69-.266-.445-.266-.978 0-.485.219-.896.225-.417.608-.69.287-.212.78-.355.498-.15 1.066-.15.854 0 1.497.245.65.246.957.67.307.417.424 1.121l-1.203.164q-.082-.56-.479-.875-.39-.314-1.107-.314-.848 0-1.21.28-.363.28-.363.656 0 .24.15.431.151.198.472.328.185.069 1.087.315 1.306.348 1.819.574.52.219.813.642.294.424.294 1.053 0 .615-.362 1.162-.356.54-1.032.841-.677.294-1.532.294-1.415 0-2.16-.588-.738-.588-.943-1.743z"/>
<path d="M1071.617 122.762l1.271.157q-.3 1.115-1.114 1.73-.814.615-2.078.615-1.593 0-2.53-.977-.93-.985-.93-2.755 0-1.832.944-2.844.944-1.012 2.447-1.012 1.457 0 2.38.991.922.992.922 2.79 0 .109-.01.328h-5.414q.068 1.196.677 1.832.608.635 1.517.635.677 0 1.156-.355.478-.356.759-1.135zm-4.04-1.99h4.053q-.082-.915-.465-1.373-.587-.711-1.524-.711-.848 0-1.429.567-.574.568-.635 1.518z"/>
<path d="M1090.261 124l.178 1.086q-.52.11-.93.11-.67 0-1.039-.212-.369-.212-.52-.554-.15-.349-.15-1.456v-4.177h-.902v-.957h.902v-1.798l1.224-.738v2.536h1.237v.957h-1.237v4.245q0 .527.062.677.068.15.212.24.15.088.424.088.205 0 .54-.047z"/>
<path d="M1091.45 125.1v-7.26h1.108v1.1q.424-.772.78-1.018.362-.246.792-.246.622 0 1.265.397l-.424 1.141q-.451-.266-.902-.266-.403 0-.725.246-.321.239-.458.67-.205.656-.205 1.435v3.801z"/>
<path d="M1100.864 124.204q-.684.582-1.32.82-.629.24-1.353.24-1.196 0-1.839-.581-.643-.588-.643-1.497 0-.533.24-.97.246-.445.636-.712.396-.266.888-.403.362-.096 1.094-.185 1.49-.177 2.194-.423.01-.253.01-.322 0-.752-.348-1.06-.472-.416-1.402-.416-.868 0-1.285.307-.41.301-.608 1.074l-1.203-.164q.164-.773.54-1.245.376-.478 1.086-.731.711-.26 1.648-.26.93 0 1.51.219.582.219.855.554.274.328.383.834.062.314.062 1.134v1.641q0 1.716.075 2.174.082.451.314.868h-1.285q-.191-.383-.246-.896zm-.103-2.748q-.67.274-2.01.465-.758.11-1.073.246-.314.137-.485.404-.171.26-.171.58 0 .493.37.821.375.328 1.093.328.71 0 1.265-.307.553-.315.813-.855.198-.417.198-1.23z"/>
<path d="M1103.913 125.1v-7.26h1.107v1.032q.8-1.196 2.31-1.196.657 0 1.204.24.553.232.827.615.273.382.383.909.068.342.068 1.196v4.464h-1.23v-4.416q0-.752-.144-1.121-.144-.376-.513-.595-.362-.225-.854-.225-.787 0-1.36.499-.568.499-.568 1.893v3.965z"/>
<path d="M1111.207 122.933l1.216-.191q.103.731.568 1.12.471.39 1.312.39.848 0 1.258-.341.41-.35.41-.814 0-.417-.362-.656-.253-.164-1.258-.417-1.353-.342-1.88-.588-.52-.253-.793-.69-.266-.445-.266-.978 0-.485.218-.896.226-.417.609-.69.287-.212.78-.355.498-.15 1.066-.15.854 0 1.497.245.649.246.957.67.307.417.423 1.121l-1.203.164q-.082-.56-.478-.875-.39-.314-1.108-.314-.847 0-1.21.28-.362.28-.362.656 0 .24.15.431.15.198.472.328.185.069 1.087.315 1.306.348 1.818.574.52.219.814.642.294.424.294 1.053 0 .615-.362 1.162-.356.54-1.033.841-.676.294-1.53.294-1.416 0-2.161-.588-.738-.588-.943-1.743z"/>
<path d="M1118.706 116.494v-1.415h1.23v1.415zm0 8.606v-7.26h1.23v7.26z"/>
<path d="M1126.779 122.762l1.271.157q-.3 1.115-1.114 1.73-.813.615-2.078.615-1.593 0-2.53-.977-.93-.985-.93-2.755 0-1.832.944-2.844.944-1.012 2.448-1.012 1.456 0 2.379.991.922.992.922 2.79 0 .109-.01.328h-5.414q.068 1.196.677 1.832.608.635 1.518.635.676 0 1.155-.355.478-.356.759-1.135zm-4.04-1.99h4.054q-.082-.915-.465-1.373-.588-.711-1.525-.711-.847 0-1.429.567-.574.568-.635 1.518z"/>
<path d="M1129.595 125.1v-7.26h1.108v1.032q.8-1.196 2.31-1.196.656 0 1.203.24.554.232.828.615.273.382.382.909.068.342.068 1.196v4.464h-1.23v-4.416q0-.752-.144-1.121-.143-.376-.512-.595-.363-.225-.855-.225-.786 0-1.36.499-.568.499-.568 1.893v3.965z"/>
<path d="M1140.068 124l.178 1.086q-.52.11-.93.11-.67 0-1.04-.212-.368-.212-.519-.554-.15-.349-.15-1.456v-4.177h-.902v-.957h.902v-1.798l1.224-.738v2.536h1.237v.957h-1.237v4.245q0 .527.062.677.068.15.211.24.15.088.424.088.205 0 .54-.047z"/>
<path d="M1159.38 122.44l1.21.158q-.197 1.251-1.018 1.962-.813.704-2.003.704-1.49 0-2.4-.97-.901-.978-.901-2.797 0-1.175.39-2.057.389-.882 1.182-1.32.8-.444 1.736-.444 1.183 0 1.935.602.752.594.964 1.695l-1.197.185q-.17-.732-.608-1.101-.43-.37-1.046-.37-.93 0-1.51.67-.582.664-.582 2.106 0 1.463.56 2.126.561.663 1.464.663.724 0 1.21-.444.485-.444.615-1.367z"/>
<path d="M1161.644 125.1v-7.26h1.1v1.019q.342-.533.91-.855.567-.328 1.291-.328.807 0 1.32.335.52.335.731.937.861-1.272 2.242-1.272 1.08 0 1.661.602.582.594.582 1.839v4.983h-1.224v-4.573q0-.739-.123-1.06-.116-.328-.43-.526-.315-.198-.74-.198-.765 0-1.27.512-.506.506-.506 1.627v4.218h-1.231v-4.717q0-.82-.3-1.23-.301-.41-.985-.41-.52 0-.964.273-.437.273-.636.8-.198.526-.198 1.517v3.767z"/>
<path d="M1173.306 127.882V117.84h1.12v.944q.397-.554.896-.828.5-.28 1.21-.28.93 0 1.64.479.712.478 1.074 1.353.362.868.362 1.907 0 1.115-.403 2.01-.396.889-1.162 1.367-.759.472-1.6.472-.615 0-1.107-.26-.485-.26-.8-.656v3.534zm1.114-6.37q0 1.4.567 2.07.568.67 1.374.67.82 0 1.402-.69.588-.697.588-2.153 0-1.388-.575-2.079-.567-.69-1.36-.69-.786 0-1.395.738-.601.732-.601 2.133z"/>
<path d="M1181.064 125.1v-10.021h1.23V125.1z"/>
<path d="M1183.382 125.1l2.652-3.773-2.454-3.487h1.538l1.114 1.702q.315.486.506.814.301-.451.554-.8l1.224-1.716h1.47l-2.51 3.418 2.7 3.842h-1.51l-1.49-2.256-.397-.608-1.907 2.864z"/>
<path d="M1204.566 125.1v-10.021h1.326v4.115h5.21v-4.115h1.325V125.1h-1.326v-4.724h-5.209v4.724z"/>
<path d="M1230.86 125.1v-10.021h1.327V125.1z"/>
<path d="M1251.403 122.256l1.197-.164q.048 1.149.43 1.572.383.424 1.06.424.499 0 .861-.225.362-.233.5-.622.136-.397.136-1.258v-6.904h1.326v6.829q0 1.257-.308 1.948-.3.69-.963 1.053-.657.362-1.545.362-1.32 0-2.024-.759-.697-.759-.67-2.256z"/>
<path fill="#fff" d="M174.9 87.502v15.25l3.35-3.35 2.15 5.2 2.45-1.25-2.15-4.85 4.9-.35z"/>
<path d="M175.15 86.9v16.455l3.512-3.51 2.11 5.103 2.902-1.48-2.102-4.742 5.094-.363zm.5 1.203l9.885 9.84-4.707.336 2.197 4.959-1.998 1.02-2.19-5.298-3.187 3.188z"/>
</svg>