<svg viewBox="0 0 1263 128" xmlns="http://www.w3.org/2000/svg">
<desc>Created with https://vsm.github.io/demo</desc>
<style>
rect,path,text{stroke:none}
.box-border{stroke:#d3d9e5;stroke-width:1px;fill:none}
.foot{stroke:#b6b6b6}.foot.stub{stroke:#cbcbcb}
.back,.leg{stroke:#7a7a7a}.obj,.par{stroke:#7a7a7a;fill:none}
.rel,.lis{fill:#7a7a7a}
.back.stub,.leg.stub,.obj.stub{stroke:#c3c3c3}
.rel.stub{fill:#c3c3c3}
.obj.uc,.par.uc,.leg.uc{stroke:#2e48ff;opacity:.56}
.rel.uc,.lis.uc{fill:#2e48ff;opacity:.56}.foot.uc{stroke:#e6e6e6}
.back.ref,.leg.ref,.foot.ref{stroke-dasharray:2 1}
.pos-hl,.hl-leg-under{fill:#f0f4fb}
.hl-back-top,.hl-leg{fill:#e5e9fb}
.ri-fg{stroke:#aabcce;stroke-width:2px}.ri-fg.hl{stroke:#fff}
.ri-bg{fill:none}.ri-bg.hl{fill:#7491ab}
.r.ref{stroke:#e2e6f0;fill:#e2e6f0}
.r.ref-bord{stroke:#b1bed8;stroke-dasharray:2 1.5}
.r.ref.edit{stroke:none}
.r.inst{stroke:#b1bed8;fill:#e2e6f0}
.r.inst.edit,.r.ref-bord.edit{stroke:#c4c4c4}
.r.class{stroke:#e5c547;fill:#f9f2b9}
.r.class.edit{stroke:#ebd262}
.r.lit{stroke:#d8b1ba;fill:#f0e2e6}
.r.lit.edit{stroke:#e1c2c7}
.r.edit,.r.ref-bord{fill:none}
.r.inst.end{stroke:#f0f0f0}
.r.focal{stroke:#aaa;stroke-dasharray:.1 3.4;stroke-width:1.7px;stroke-linecap:round}
.textcursor{stroke:#000;stroke-width:1px}
.t{font:11px tahoma,sans-serif;white-space:pre}
.t.inst,.t.ref{fill:#1c2a47}
.t.edit,.t.end{fill:#7a7a7a}.t.plac{fill:#aaa}
.t.class{fill:#2a2a05}.t.lit{fill:#200505}
.mouse{stroke:#000;fill:#fff;stroke-width:.5px}
.click{stroke:#000;fill:none;stroke-width:.8px}
/*sketch style*/
.box-border{stroke:#d8d8d8}
.back,.leg,.obj,.par{stroke:#000;stroke-width:1.2px}
.rel,.lis{fill:#000}
.back.stub,.leg.stub,.obj.stub{stroke:#eee;stroke-width:1.2px}
.rel.stub{fill:#eee}
.foot.stub{stroke:#f2f2f2;stroke-width:1.2px}
.back.ref,.leg.ref,.foot.ref{stroke-dasharray:2.6 1.3}
.r.ref-bord{stroke-dasharray:2.6 1.95}
.r.focal{stroke-dasharray:.1 4;stroke-width:2px}
.r{stroke-width:1.35px}
.r.class,.r.lit{fill:none}
.r.ref-bord{stroke:#000}
.t{font:14px arial;text-anchor:middle}
.t.inst,.t.ref,.t.class,.t.lit{fill:#000}
.t.edit,.t.plac,.t.end{fill:#aaa;text-anchor:start}
.hide,.r.end.hide{stroke:none;fill:none}
</style>
<g>
<path class="hl-back-top" d="M0 2.6 a2.6 2.6 0 0 1 2.6 -2.6 h1190.8 a2.6 2.6 0 0 1 2.6 2.6 v7.4 h-1196 Z"/>
<rect class="hl-leg" x="0" y="10" width="198" height="101"/>
<rect class="hl-leg" x="200" y="10" width="21" height="101"/>
<rect class="hl-leg" x="223" y="10" width="21" height="34"/>
<rect class="hl-leg" x="468" y="10" width="48" height="78"/>
<rect class="hl-leg" x="587" y="10" width="48" height="12"/>
<rect class="hl-leg" x="1148" y="10" width="48" height="56"/>
<rect class="hl-leg-under" x="223" y="44" width="21" height="67"/>
<rect class="hl-leg-under" x="468" y="88" width="48" height="23"/>
<rect class="hl-leg-under" x="587" y="22" width="48" height="89"/>
<rect class="hl-leg-under" x="1148" y="66" width="48" height="45"/>
</g><g>
<line class="back" x1="274" y1="94.6" x2="370.2" y2="94.6"/>
<line class="leg" x1="274.6" y1="108.2" x2="274.6" y2="94"/>
<line class="leg" x1="327.6" y1="101.81" x2="327.6" y2="94"/>
<path class="rel" d="M327.6 100.61 L331.89 108.2 H323.31 Z"/>
<line class="leg" x1="369.6" y1="107" x2="369.6" y2="94"/>
<path class="obj" d="M365.75 101.81 L369.6 107 L373.45 101.81"/>
</g><g>
<line class="back" x1="274" y1="72.6" x2="453.2" y2="72.6"/>
<line class="leg" x1="274.6" y1="86.2" x2="274.6" y2="72"/>
<line class="leg" x1="412.6" y1="101.81" x2="412.6" y2="72"/>
<path class="rel" d="M412.6 100.61 L416.89 108.2 H408.31 Z"/>
<line class="leg" x1="452.6" y1="107" x2="452.6" y2="72"/>
<path class="obj" d="M448.75 101.81 L452.6 107 L456.45 101.81"/>
</g><g>
<line class="back" x1="233" y1="50.6" x2="275.2" y2="50.6"/>
<line class="leg" x1="233.6" y1="108.2" x2="233.6" y2="50"/>
<line class="leg" x1="274.6" y1="63" x2="274.6" y2="50"/>
<path class="obj" d="M270.75 57.81 L274.6 63 L278.45 57.81"/>
<line class="foot stub" x1="251.3" y1="55.7" x2="256.9" y2="55.7"/>
<line class="leg stub" x1="254.1" y1="51.2" x2="254.1" y2="55.1"/>
<path class="rel stub" d="M254.1 52.15 L255.8 55.1 H252.4 Z"/>
</g><g>
<line class="back" x1="491" y1="94.6" x2="575.2" y2="94.6"/>
<line class="back two" x1="491" y1="96.93" x2="575.2" y2="96.93"/>
<line class="leg" x1="491.6" y1="101.82" x2="491.6" y2="94"/>
<path class="lis" d="M488.08 101.82 H495.12 V108.2 H488.08 Z"/>
<line class="leg" x1="528.6" y1="108.2" x2="528.6" y2="94"/>
<line class="leg" x1="551.6" y1="108.2" x2="551.6" y2="94"/>
<line class="leg" x1="574.6" y1="108.2" x2="574.6" y2="94"/>
</g><g>
<line class="back" x1="647" y1="94.6" x2="748.2" y2="94.6"/>
<line class="leg" x1="647.6" y1="108.2" x2="647.6" y2="94"/>
<line class="leg" x1="692.6" y1="101.81" x2="692.6" y2="94"/>
<path class="rel" d="M692.6 100.61 L696.89 108.2 H688.31 Z"/>
<line class="leg" x1="747.6" y1="107" x2="747.6" y2="94"/>
<path class="obj" d="M743.75 101.81 L747.6 107 L751.45 101.81"/>
</g><g>
<line class="back" x1="822" y1="94.6" x2="918.2" y2="94.6"/>
<line class="leg" x1="822.6" y1="108.2" x2="822.6" y2="94"/>
<line class="leg" x1="877.6" y1="101.81" x2="877.6" y2="94"/>
<path class="rel" d="M877.6 100.61 L881.89 108.2 H873.31 Z"/>
<line class="leg" x1="917.6" y1="107" x2="917.6" y2="94"/>
<path class="obj" d="M913.75 101.81 L917.6 107 L921.45 101.81"/>
</g><g>
<line class="back" x1="780" y1="72.6" x2="823.2" y2="72.6"/>
<line class="leg" x1="780.6" y1="108.2" x2="780.6" y2="72"/>
<line class="leg" x1="822.6" y1="85" x2="822.6" y2="72"/>
<path class="obj" d="M818.75 79.81 L822.6 85 L826.45 79.81"/>
<line class="foot stub" x1="798.8" y1="77.7" x2="804.4" y2="77.7"/>
<line class="leg stub" x1="801.6" y1="73.2" x2="801.6" y2="77.1"/>
<path class="rel stub" d="M801.6 74.15 L803.3 77.1 H799.9 Z"/>
</g><g>
<line class="back" x1="780" y1="50.6" x2="1053.2" y2="50.6"/>
<line class="leg" x1="780.6" y1="64.2" x2="780.6" y2="50"/>
<line class="leg" x1="978.6" y1="101.81" x2="978.6" y2="50"/>
<path class="rel" d="M978.6 100.61 L982.89 108.2 H974.31 Z"/>
<line class="leg" x1="1052.6" y1="107" x2="1052.6" y2="50"/>
<path class="obj" d="M1048.75 101.81 L1052.6 107 L1056.45 101.81"/>
</g><g>
<line class="back" x1="610" y1="28.6" x2="781.2" y2="28.6"/>
<line class="back two" x1="610" y1="30.93" x2="781.2" y2="30.93"/>
<line class="leg" x1="610.6" y1="101.82" x2="610.6" y2="28"/>
<path class="lis" d="M607.08 101.82 H614.12 V108.2 H607.08 Z"/>
<line class="leg" x1="647.6" y1="86.2" x2="647.6" y2="28"/>
<line class="leg" x1="780.6" y1="42.2" x2="780.6" y2="28"/>
</g><g>
<line class="back" x1="1171" y1="94.6" x2="1255.2" y2="94.6"/>
<line class="back two" x1="1171" y1="96.93" x2="1255.2" y2="96.93"/>
<line class="leg" x1="1171.6" y1="101.82" x2="1171.6" y2="94"/>
<path class="lis" d="M1168.08 101.82 H1175.12 V108.2 H1168.08 Z"/>
<line class="leg" x1="1208.6" y1="108.2" x2="1208.6" y2="94"/>
<line class="leg" x1="1231.6" y1="108.2" x2="1231.6" y2="94"/>
<line class="leg" x1="1254.6" y1="108.2" x2="1254.6" y2="94"/>
</g><g>
<line class="back" x1="1113" y1="72.6" x2="1172.2" y2="72.6"/>
<line class="leg" x1="1171.6" y1="86.2" x2="1171.6" y2="72"/>
<line class="leg" x1="1113.6" y1="107" x2="1113.6" y2="72"/>
<path class="obj" d="M1109.75 101.81 L1113.6 107 L1117.45 101.81"/>
<line class="foot stub" x1="1139.8" y1="77.7" x2="1145.4" y2="77.7"/>
<line class="leg stub" x1="1142.6" y1="73.2" x2="1142.6" y2="77.1"/>
<path class="rel stub" d="M1142.6 74.15 L1144.3 77.1 H1140.9 Z"/>
</g><g>
<line class="back" x1="98" y1="6.6" x2="1172.2" y2="6.6"/>
<line class="back two" x1="98" y1="8.93" x2="1172.2" y2="8.93"/>
<line class="leg" x1="98.6" y1="101.82" x2="98.6" y2="6"/>
<path class="lis" d="M95.08 101.82 H102.12 V108.2 H95.08 Z"/>
<line class="leg" x1="210.6" y1="108.2" x2="210.6" y2="6"/>
<line class="leg" x1="233.6" y1="42.2" x2="233.6" y2="6"/>
<line class="leg" x1="491.6" y1="86.2" x2="491.6" y2="6"/>
<line class="leg" x1="610.6" y1="20.2" x2="610.6" y2="6"/>
<line class="leg" x1="1171.6" y1="64.2" x2="1171.6" y2="6"/>
</g><g>
<rect class="ri-bg hide" x="1185" y="0" width="11" height="11" rx="2.6"/>
<path class="ri-fg hide" d="M1187.5 2.5 L1193.5 8.5"/>
<path class="ri-fg hide" d="M1187.5 8.5 L1193.5 2.5"/>
</g>
<text class="t inst" x="99" y="125.1" width="187.4"><tspan>protein assembly </tspan
><tspan font-style="italic">(complex of)</tspan></text>
<text class="t inst" x="210.5" y="125.1" width="10.4">A</text>
<text class="t inst" x="233.5" y="125.1" width="10.4">B</text>
<text class="t inst" x="274.5" y="125.1" width="46.4">phosph</text>
<text class="t inst" x="328" y="125.1" width="35.4">at res</text>
<text class="t inst" x="369.5" y="125.1" width="22.4">Ser</text>
<text class="t inst" x="412.5" y="125.1" width="38.4">at pos</text>
<text class="t inst" x="452.5" y="125.1" width="16.4">20</text>
<text class="t inst" x="492" y="125.1" width="37.4">cmplx</text>
<text class="t inst" x="528.5" y="125.1" width="10.4">C</text>
<text class="t inst" x="551.5" y="125.1" width="10.4">D</text>
<text class="t inst" x="574.5" y="125.1" width="10.4">E</text>
<text class="t inst" x="611" y="125.1" width="37.4">cmplx</text>
<text class="t inst" x="647.5" y="125.1" width="10.4">F</text>
<text class="t inst" x="693" y="125.1" width="55.4">bound to</text>
<text class="t inst" x="748" y="125.1" width="29.4"><tspan>Ca</tspan
><tspan font-size="9.6" dy="-2.8">2+</tspan></text>
<text class="t inst" x="781" y="125.1" width="11.4">G</text>
<text class="t inst" x="822.5" y="125.1" width="46.4">phosph</text>
<text class="t inst" x="877.5" y="125.1" width="38.4">at pos</text>
<text class="t inst" x="917.5" y="125.1" width="16.4">25</text>
<text class="t inst" x="978.5" y="125.1" width="80.4">from species</text>
<text class="t inst" x="1052.5" y="125.1" width="42.4">Mouse</text>
<text class="t inst" x="1113.5" y="125.1" width="54.4">transient</text>
<text class="t inst" x="1172" y="125.1" width="37.4">cmplx</text>
<text class="t inst" x="1208.5" y="125.1" width="10.4">H</text>
<text class="t inst" x="1231.5" y="125.1" width="10.4">I</text>
<text class="t inst" x="1254.5" y="125.1" width="10.4">J</text>
<path class="mouse" d="M1184.15 11.2 v15.25 l3.35 -3.35 l2.15 5.2 l2.45 -1.25 l-2.15 -4.85 l4.9 -0.35 Z"/>
</svg>